<mxfile host="drawio.corp.amazon.com" modified="2024-04-18T07:54:44.551Z" agent="Mozilla/5.0 (Macintosh; Intel Mac OS X 10.15; rv:124.0) Gecko/20100101 Firefox/124.0" etag="cHp19guvwVV315QwLIRk" version="21.7.4" type="device">
  <diagram name="Page-1" id="IOrj9zfFuXBCia_hneo4">
    <mxGraphModel dx="959" dy="993" grid="1" gridSize="10" guides="1" tooltips="1" connect="1" arrows="1" fold="1" page="1" pageScale="1" pageWidth="850" pageHeight="1100" math="0" shadow="0">
      <root>
        <mxCell id="0" />
        <mxCell id="1" parent="0" />
        <mxCell id="EOZyY3MgEhMXIJWPQMr4-1" value="" style="group" parent="1" vertex="1" connectable="0">
          <mxGeometry x="340" y="480" width="660" height="630" as="geometry" />
        </mxCell>
        <mxCell id="EOZyY3MgEhMXIJWPQMr4-2" value="AWS Cloud" style="whiteSpace=wrap;html=1;strokeColor=#242F3E;fillColor=none;container=0;verticalAlign=top;align=left;spacingLeft=35;spacingTop=3;fontColor=#242F3E;" parent="EOZyY3MgEhMXIJWPQMr4-1" vertex="1">
          <mxGeometry width="660" height="630" as="geometry" />
        </mxCell>
        <mxCell id="EOZyY3MgEhMXIJWPQMr4-3" value="" style="shape=image;verticalLabelPosition=bottom;labelBackgroundColor=default;verticalAlign=top;aspect=fixed;imageAspect=0;image=data:image/svg+xml,PHN2ZyB4bWxuczp4bGluaz0iaHR0cDovL3d3dy53My5vcmcvMTk5OS94bGluayIgeG1sbnM9Imh0dHA6Ly93d3cudzMub3JnLzIwMDAvc3ZnIiB2ZXJzaW9uPSIxLjEiIHZpZXdCb3g9IjAgMCA0MCA0MCIgaGVpZ2h0PSI0MHB4IiB3aWR0aD0iNDBweCI+JiN4YTsgICAgPHRpdGxlPkljb24tQXJjaGl0ZWN0dXJlLUdyb3VwLzMyL0FXUy1DbG91ZC1sb2dvXzMyPC90aXRsZT4mI3hhOyAgICA8ZyBmaWxsLXJ1bGU9ImV2ZW5vZGQiIGZpbGw9Im5vbmUiIHN0cm9rZS13aWR0aD0iMSIgc3Ryb2tlPSJub25lIiBpZD0iSWNvbi1BcmNoaXRlY3R1cmUtR3JvdXAvMzIvQVdTLUNsb3VkLWxvZ29fMzIiPiYjeGE7ICAgICAgICA8cmVjdCBoZWlnaHQ9IjQwIiB3aWR0aD0iNDAiIHk9IjAiIHg9IjAiIGZpbGw9IiMyNDJGM0UiIGlkPSJSZWN0YW5nbGUiLz4mI3hhOyAgICAgICAgPHBhdGggZmlsbD0iI0ZGRkZGRiIgaWQ9IkZpbGwtMSIgZD0iTTMyLjY5ODIsMjMuOTAwOCBDMzMuMDU5MiwyNC4zNjk4IDMyLjI5ODIsMjYuMjk5OCAzMS45NTcyLDI3LjE2MzggQzMxLjg1MzIsMjcuNDI1OCAzMi4wNzUyLDI3LjUyODggMzIuMzA3MiwyNy4zMzE4IEMzMy44MjAyLDI2LjA0NzggMzQuMjEyMiwyMy4zNTY4IDMzLjkwMTIsMjIuOTY4OCBDMzMuNTk0MiwyMi41ODI4IDMwLjk1MDIsMjIuMjUxOCAyOS4zMzgyLDIzLjQwMDggQzI5LjA4OTIsMjMuNTc3OCAyOS4xMzIyLDIzLjgyMTggMjkuNDA3MiwyMy43ODk4IEMzMC4zMTUyLDIzLjY3NzggMzIuMzM4MiwyMy40MzI4IDMyLjY5ODIsMjMuOTAwOCBMMzIuNjk4MiwyMy45MDA4IFogTTMxLjg1NjIsMjUuOTA5OCBDMzIuMzc0MiwyNS41MzE4IDMxLjkzMDIsMjQuOTY4OCAzMS40MDIyLDI1LjE4OTggQzI3Ljg4OTIsMjYuNjUzOCAyNC4wNzUyLDI3LjM2MjggMjAuNjAyMiwyNy4zNjI4IEMxNS40NTkyLDI3LjM2MjggMTAuNDc1MiwyNS45NzM4IDYuNDQ2MiwyMy42Njc4IEM2LjA5NDIsMjMuNDY1OCA1LjgzMzIsMjMuODIyOCA2LjEyNzIsMjQuMDgxOCBDOS44NjAyLDI3LjM5NzggMTQuNzk2MiwyOS4zOTA4IDIwLjI3NDIsMjkuMzkwOCBDMjQuMTg0MiwyOS4zOTA4IDI4LjcyNTIsMjguMTgyOCAzMS44NTYyLDI1LjkwOTggTDMxLjg1NjIsMjUuOTA5OCBaIE0yOS43MTIyLDIwLjY5NDggQzI5LjIxNDIsMjAuNjk0OCAyOC43MjcyLDIwLjY0MTggMjguMjUzMiwyMC41MzM4IEMyNy43NzcyLDIwLjQyNDggMjcuNDEzMiwyMC4zMDE4IDI3LjE2MDIsMjAuMTYwOCBDMjcuMDA1MiwyMC4wNzY4IDI2LjkwODIsMTkuOTg4OCAyNi44NjkyLDE5LjkwMjggQzI2LjgzMTIsMTkuODE0OCAyNi44MTEyLDE5LjcyODggMjYuODExMiwxOS42NDI4IEwyNi44MTEyLDE5LjE3MzggQzI2LjgxMTIsMTguOTc5OCAyNi44ODQyLDE4Ljg4MDggMjcuMDI3MiwxOC44ODA4IEMyNy4wODIyLDE4Ljg4MDggMjcuMTQwMiwxOC44OTM4IDI3LjIwMDIsMTguOTEzOCBDMjcuMjYxMiwxOC45MzY4IDI3LjM0MTIsMTguOTY4OCAyNy40NDEyLDE5LjAxMTggQzI3Ljc2MTIsMTkuMTUyOCAyOC4xMDgyLDE5LjI1OTggMjguNDg1MiwxOS4zMzU4IEMyOC44NjEyLDE5LjQxMDggMjkuMjM2MiwxOS40NDg4IDI5LjYxMTIsMTkuNDQ4OCBDMzAuMjA4MiwxOS40NDg4IDMwLjY2OTIsMTkuMzQ2OCAzMC45OTUyLDE5LjE0MDggQzMxLjMyMjIsMTguOTM2OCAzMS40ODQyLDE4LjY0NTggMzEuNDg0MiwxOC4yNjc4IEMzMS40ODQyLDE4LjAwNzggMzEuMzk5MiwxNy43OTI4IDMxLjIyNzIsMTcuNjE4OCBDMzEuMDU2MiwxNy40NDQ4IDMwLjczODIsMTcuMjg1OCAzMC4yNzUyLDE3LjEzMzggTDI4LjkwMDIsMTYuNzEyOCBDMjguMjAzMiwxNi40OTY4IDI3LjY5ODIsMTYuMTgzOCAyNy4zODMyLDE1Ljc3NDggQzI3LjA2ODIsMTUuMzYyOCAyNi45MTEyLDE0LjkxNTggMjYuOTExMiwxNC40Mjc4IEMyNi45MTEyLDE0LjA0MDggMjYuOTk2MiwxMy42OTg4IDI3LjE2OTIsMTMuNDAwOCBDMjcuMzM5MiwxMy4xMDM4IDI3LjU2NDIsMTIuODUwOCAyNy44NDUyLDEyLjYzOTggQzI4LjEzMDIsMTIuNDI5OCAyOC40NTkyLDEyLjI3MTggMjguODM0MiwxMi4xNjE4IEMyOS4yMDgyLDEyLjA1NDggMjkuNjA2MiwxMS45OTk4IDMwLjAyNjIsMTEuOTk5OCBDMzAuMjM2MiwxMS45OTk4IDMwLjQ0OTIsMTIuMDEzOCAzMC42NjYyLDEyLjA0MDggQzMwLjg4MTIsMTIuMDY2OCAzMS4wODUyLDEyLjEwMjggMzEuMjc4MiwxMi4xNDU4IEMzMS40NzEyLDEyLjE5MDggMzEuNjUxMiwxMi4yMzg4IDMxLjgxNjIsMTIuMjkxOCBDMzEuOTgyMiwxMi4zNDY4IDMyLjExNDIsMTIuNDAwOCAzMi4yMTUyLDEyLjQ1MzggQzMyLjM0NjIsMTIuNTI4OCAzMi40MzkyLDEyLjYwNDggMzIuNDk2MiwxMi42ODA4IEMzMi41NTEyLDEyLjc1NTggMzIuNTc5MiwxMi44NTc4IDMyLjU3OTIsMTIuOTg4OCBMMzIuNTc5MiwxMy40MjQ4IEMzMi41NzkyLDEzLjYxOTggMzIuNTA3MiwxMy43MTU4IDMyLjM2MjIsMTMuNzE1OCBDMzIuMjg1MiwxMy43MTU4IDMyLjE2NTIsMTMuNjc5OCAzMS45OTgyLDEzLjYwMzggQzMxLjQ1ODIsMTMuMzY0OCAzMC44NDgyLDEzLjI0NzggMzAuMTc3MiwxMy4yNDc4IEMyOS42MzUyLDEzLjI0NzggMjkuMjE0MiwxMy4zMzM4IDI4LjkxNjIsMTMuNTA1OCBDMjguNjE3MiwxMy42Nzk4IDI4LjQ2ODIsMTMuOTU0OCAyOC40NjgyLDE0LjMzMjggQzI4LjQ2ODIsMTQuNTkwOCAyOC41NjIyLDE0LjgwOTggMjguNzUxMiwxNC45ODc4IEMyOC45MzkyLDE1LjE2NTggMjkuMjg2MiwxNS4zMzU4IDI5Ljc5NTIsMTUuNDk4OCBMMzEuMTM3MiwxNS45MjA4IEMzMS44MjIyLDE2LjEzNDggMzIuMzExMiwxNi40MzI4IDMyLjYwMzIsMTYuODA4OCBDMzIuODk3MiwxNy4xODc4IDMzLjA0NDIsMTcuNjE4OCAzMy4wNDQyLDE4LjEwMzggQzMzLjA0NDIsMTguNTA0OCAzMi45NjEyLDE4Ljg2MzggMzIuNzk0MiwxOS4xODE4IEMzMi42MjgyLDE5LjUwMDggMzIuMzk5MiwxOS43NzE4IDMyLjEwNTIsMTkuOTk4OCBDMzEuODEzMiwyMC4yMjU4IDMxLjQ2MzIsMjAuMzk3OCAzMS4wNTQyLDIwLjUxNjggQzMwLjY0NDIsMjAuNjM2OCAzMC4xOTcyLDIwLjY5NDggMjkuNzEyMiwyMC42OTQ4IEwyOS43MTIyLDIwLjY5NDggWiBNMTcuNTQ3MiwyMC40NTA4IEMxNy4zODEyLDIwLjQ1MDggMTcuMjYwMiwyMC40MjM4IDE3LjE4MjIsMjAuMzYzOCBDMTcuMTA0MiwyMC4zMDI4IDE3LjAzODIsMjAuMTgyOCAxNi45ODMyLDE5Ljk5ODggTDE0Ljc2MTIsMTIuODQxOCBDMTQuNzA4MiwxMi42NTc4IDE0LjY3OTIsMTIuNTM0OCAxNC42NzkyLDEyLjQ3MDggQzE0LjY3OTIsMTIuMzE5OCAxNC43NTcyLDEyLjI0MzggMTQuOTEyMiwxMi4yNDM4IEwxNS44MzkyLDEyLjI0MzggQzE2LjAxNjIsMTIuMjQzOCAxNi4xNDAyLDEyLjI3MzggMTYuMjEzMiwxMi4zMzM4IEMxNi4yODQyLDEyLjM5MTggMTYuMzQ3MiwxMi41MTE4IDE2LjQwMjIsMTIuNjk3OCBMMTcuOTkzMiwxOC44MTc4IEwxOS40NzAyLDEyLjY5NzggQzE5LjUxNDIsMTIuNTExOCAxOS41NzQyLDEyLjM5MTggMTkuNjUxMiwxMi4zMzM4IEMxOS43MjgyLDEyLjI3MzggMTkuODU1MiwxMi4yNDM4IDIwLjAzMTIsMTIuMjQzOCBMMjAuNzk2MiwxMi4yNDM4IEMyMC45NzEyLDEyLjI0MzggMjEuMDk4MiwxMi4yNzM4IDIxLjE3NjIsMTIuMzMzOCBDMjEuMjUzMiwxMi4zOTE4IDIxLjMxNDIsMTIuNTExOCAyMS4zNTgyLDEyLjY5NzggTDIyLjg1MTIsMTguODk4OCBMMjQuNDkxMiwxMi42OTc4IEMyNC41NDYyLDEyLjUxMTggMjQuNjA5MiwxMi4zOTE4IDI0LjY4MTIsMTIuMzMzOCBDMjQuNzU0MiwxMi4yNzM4IDI0Ljg3NzIsMTIuMjQzOCAyNS4wNTQyLDEyLjI0MzggTDI1LjkzMjIsMTIuMjQzOCBDMjYuMDg4MiwxMi4yNDM4IDI2LjE2NTIsMTIuMzE5OCAyNi4xNjUyLDEyLjQ3MDggQzI2LjE2NTIsMTIuNTExOCAyNi4xNTgyLDEyLjU2MTggMjYuMTQ5MiwxMi42MTQ4IEMyNi4xMzYyLDEyLjY3MDggMjYuMTE2MiwxMi43NDU4IDI2LjA4MTIsMTIuODQxOCBMMjMuNzk1MiwxOS45OTg4IEMyMy43NDAyLDIwLjE4MjggMjMuNjczMiwyMC4zMDI4IDIzLjU5NTIsMjAuMzYzOCBDMjMuNTE4MiwyMC40MjM4IDIzLjM5NjIsMjAuNDUwOCAyMy4yMzEyLDIwLjQ1MDggTDIyLjQxODIsMjAuNDUwOCBDMjIuMjQyMiwyMC40NTA4IDIyLjExNTIsMjAuNDIwOCAyMi4wMzgyLDIwLjM1NjggQzIxLjk2MTIsMjAuMjkxOCAyMS45MDAyLDIwLjE2NTggMjEuODU2MiwxOS45ODM4IEwyMC4zODAyLDE0LjAyMzggTDE4LjkyMzIsMTkuOTgzOCBDMTguODc5MiwyMC4xNjU4IDE4LjgxNzIsMjAuMjkxOCAxOC43NDAyLDIwLjM1NjggQzE4LjY2MjIsMjAuNDIwOCAxOC41MzYyLDIwLjQ1MDggMTguMzU5MiwyMC40NTA4IEwxNy41NDcyLDIwLjQ1MDggWiBNOS45MzkyLDE5LjQ0ODggQzEwLjI1MDIsMTkuNDQ4OCAxMC41NzUyLDE5LjM5MTggMTAuOTE4MiwxOS4yNzg4IEMxMS4yNjAyLDE5LjE2NDggMTEuNTU4MiwxOC45Njg4IDExLjgxMjIsMTguNjg2OCBDMTEuOTY4MiwxOC41MTQ4IDEyLjA3NDIsMTguMzE3OCAxMi4xMzYyLDE4LjA5NTggQzEyLjE5NjIsMTcuODc1OCAxMi4yMjUyLDE3LjYwODggMTIuMjI1MiwxNy4yOTQ4IEwxMi4yMjUyLDE2LjkwNjggQzExLjk1MTIsMTYuODQxOCAxMS42NjEyLDE2Ljc5MDggMTEuMzU2MiwxNi43NTI4IEMxMS4wNTIyLDE2LjcxNTggMTAuNzU3MiwxNi42OTU4IDEwLjQ2OTIsMTYuNjk1OCBDOS44NDAyLDE2LjY5NTggOS4zNjkyLDE2LjgxOTggOS4wNjEyLDE3LjA2ODggQzguNzUyMiwxNy4zMTY4IDguNTk2MiwxNy42NzE4IDguNTk2MiwxOC4xMzg4IEM4LjU5NjIsMTguNTY5OCA4LjcxMzIsMTguODk0OCA4Ljk0NTIsMTkuMTE2OCBDOS4xNzcyLDE5LjMzODggOS41MDkyLDE5LjQ0ODggOS45MzkyLDE5LjQ0ODggTDkuOTM5MiwxOS40NDg4IFogTTEzLjc4NTIsMTguMDQwOCBDMTMuNzg1MiwxOC4zODU4IDEzLjgyMDIsMTguNjU5OCAxMy44OTIyLDE4Ljg2NTggQzEzLjk2NTIsMTkuMDcxOCAxNC4wNjcyLDE5LjI5MzggMTQuMTk5MiwxOS41Mjk4IEMxNC4yNDMyLDE5LjYwNTggMTQuMjY1MiwxOS42NzU4IDE0LjI2NTIsMTkuNzM4OCBDMTQuMjY1MiwxOS44Mzc4IDE0LjIwNDIsMTkuOTI5OCAxNC4wODMyLDIwLjAxNDggTDEzLjQ4NjIsMjAuNDA0OCBDMTMuMzk4MiwyMC40NTc4IDEzLjMxNTIsMjAuNDg1OCAxMy4yMzgyLDIwLjQ4NTggQzEzLjEzNzIsMjAuNDg1OCAxMy4wNDQyLDIwLjQ0MjggMTIuOTU2MiwyMC4zNTY4IEMxMi44MjIyLDIwLjIyNTggMTIuNzEwMiwyMC4wODM4IDEyLjYxNzIsMTkuOTI2OCBDMTIuNTIxMiwxOS43NzA4IDEyLjQyNTIsMTkuNTg3OCAxMi4zMjYyLDE5LjM4MjggQzExLjU4NTIsMjAuMjM1OCAxMC42NTgyLDIwLjY2MjggOS41NDIyLDIwLjY2MjggQzguNzQ2MiwyMC42NjI4IDguMTE2MiwyMC40NDI4IDcuNjUxMiwxOS45OTg4IEM3LjE4ODIsMTkuNTU2OCA2Ljk1NjIsMTguOTYyOCA2Ljk1NjIsMTguMjE4OCBDNi45NTYyLDE3LjQzMTggNy4yNDMyLDE2Ljc5NTggNy44MTkyLDE2LjMxNTggQzguMzkyMiwxNS44MzU4IDkuMTY3MiwxNS41OTQ4IDEwLjEzODIsMTUuNTk0OCBDMTAuNDU5MiwxNS41OTQ4IDEwLjc5MzIsMTUuNjE5OCAxMS4xNDEyLDE1LjY2NzggQzExLjQ4ODIsMTUuNzE1OCAxMS44NTEyLDE1Ljc4NDggMTIuMjI1MiwxNS44NzA4IEwxMi4yMjUyLDE1LjE5MTggQzEyLjIyNTIsMTQuNDg5OCAxMi4wNzgyLDEzLjk5NTggMTEuNzc5MiwxMy43MDg4IEMxMS40ODEyLDEzLjQyMjggMTAuOTY4MiwxMy4yODA4IDEwLjIzOTIsMTMuMjgwOCBDOS45MDYyLDEzLjI4MDggOS41NjYyLDEzLjMxOTggOS4yMTgyLDEzLjQwMDggQzguODcxMiwxMy40ODE4IDguNTMwMiwxMy41ODY4IDguMTk5MiwxMy43MTU4IEM4LjA0NDIsMTMuNzgwOCA3LjkzMzIsMTMuODIxOCA3Ljg2ODIsMTMuODM3OCBDNy44MDIyLDEzLjg1MzggNy43NTIyLDEzLjg2MTggNy43MTkyLDEzLjg2MTggQzcuNTg3MiwxMy44NjE4IDcuNTE5MiwxMy43NjU4IDcuNTE5MiwxMy41Njk4IEw3LjUxOTIsMTMuMTE3OCBDNy41MTkyLDEyLjk2NTggNy41NDMyLDEyLjg1NzggNy41ODcyLDEyLjc5NDggQzcuNjMxMiwxMi43Mjg4IDcuNzE5MiwxMi42NjM4IDcuODUyMiwxMi41OTk4IEM4LjE4MzIsMTIuNDM2OCA4LjU4MTIsMTIuMjk2OCA5LjA0NDIsMTIuMTc4OCBDOS41MDkyLDEyLjA1OTggMTAuMDAwMiwxMS45OTk4IDEwLjUyMDIsMTEuOTk5OCBDMTEuNjQ2MiwxMS45OTk4IDEyLjQ3MjIsMTIuMjUyOCAxMi45OTcyLDEyLjc1MjggQzEzLjUyMTIsMTMuMjU0OCAxMy43ODUyLDE0LjAxMjggMTMuNzg1MiwxNS4wMjc4IEwxMy43ODUyLDE4LjA0MDggWiIvPiYjeGE7ICAgIDwvZz4mI3hhOzwvc3ZnPg==;moveable=0;resizable=0;connectable=0;allowArrows=0;container=0;movable=0;" parent="EOZyY3MgEhMXIJWPQMr4-1" vertex="1">
          <mxGeometry width="30" height="30" as="geometry" />
        </mxCell>
        <mxCell id="EOZyY3MgEhMXIJWPQMr4-5" style="shape=image;verticalLabelPosition=bottom;verticalAlign=top;imageAspect=0;aspect=fixed;image=data:image/svg+xml,PD94bWwgdmVyc2lvbj0iMS4wIiBlbmNvZGluZz0iVVRGLTgiPz4KPHN2ZyB3aWR0aD0iNjRweCIgaGVpZ2h0PSI2NHB4IiB2aWV3Qm94PSIwIDAgNjQgNjQiIHZlcnNpb249IjEuMSIgeG1sbnM9Imh0dHA6Ly93d3cudzMub3JnLzIwMDAvc3ZnIiB4bWxuczp4bGluaz0iaHR0cDovL3d3dy53My5vcmcvMTk5OS94bGluayI+CiAgICA8dGl0bGU+SWNvbi1BcmNoaXRlY3R1cmUvNDgvQXJjaF9BbWF6b24tU2ltcGxlLVN0b3JhZ2UtU2VydmljZV80ODwvdGl0bGU+CiAgICA8ZyBpZD0iSWNvbi1BcmNoaXRlY3R1cmUvNDgvQXJjaF9BbWF6b24tU2ltcGxlLVN0b3JhZ2UtU2VydmljZV80OCIgc3Ryb2tlPSJub25lIiBzdHJva2Utd2lkdGg9IjEiIGZpbGw9Im5vbmUiIGZpbGwtcnVsZT0iZXZlbm9kZCI+CiAgICAgICAgPGcgaWQ9Ikljb24tQXJjaGl0ZWN0dXJlLUJHLzQ4L1N0b3JhZ2UiIGZpbGw9IiM3QUExMTYiPgogICAgICAgICAgICA8cmVjdCBpZD0iUmVjdGFuZ2xlIiB4PSIwIiB5PSIwIiB3aWR0aD0iNjQiIGhlaWdodD0iNjQiPjwvcmVjdD4KICAgICAgICA8L2c+CiAgICAgICAgPGcgaWQ9Ikljb24tU2VydmljZS80OC9BbWF6b24tU2ltcGxlLVN0b3JhZ2UtU2VydmljZV80OCIgdHJhbnNmb3JtPSJ0cmFuc2xhdGUoMTAuOTk5ODAwLCAxMC4wMDAyMDApIiBmaWxsPSIjRkZGRkZGIj4KICAgICAgICAgICAgPHBhdGggZD0iTTM2Ljc1OSwyMy45NDggTDM2Ljk5MywyMi4xMzEgQzM5LjE2NiwyMy4zODUgMzkuODQyLDI0LjEyMSA0MC4wMzcsMjQuNDI0IEMzOS43MTMsMjQuNDg1IDM4LjgzMiwyNC41MDkgMzYuNzU5LDIzLjk0OCBMMzYuNzU5LDIzLjk0OCBaIE0xOS41LDExIEM5LjEyNSwxMSAyLjM4Miw4LjQ4OCAyLDYuNjk2IEwyLDYuNTExIEMyLjM0OSw1LjM5MiA4LjE0LDIgMTkuNSwyIEMzMC44NCwyIDM2LjYzMiw1LjM4MSAzNyw2LjUwNSBMMzcsNi42MTYgQzM2LjcyNCw4LjQ0NiAyOS45NjEsMTEgMTkuNSwxMSBMMTkuNSwxMSBaIE0zNC44MTgsMjMuMzYyIEMzMC4wNTMsMjEuNzk3IDIzLjkxMiwxOC45NzkgMjEuNTk0LDE3Ljg4OCBDMjEuNTM1LDE2Ljc4NiAyMC42MjgsMTUuOTA2IDE5LjUxMiwxNS45MDYgQzE4LjM1OCwxNS45MDYgMTcuNDE4LDE2Ljg0NSAxNy40MTgsMTggQzE3LjQxOCwxOS4xNTQgMTguMzU4LDIwLjA5NCAxOS41MTIsMjAuMDk0IEMxOS45NjksMjAuMDk0IDIwLjM4OSwxOS45NDIgMjAuNzMzLDE5LjY5MyBDMjMuMTMyLDIwLjgyMiAyOS42MTksMjMuNzk4IDM0LjU1OCwyNS4zOCBMMzIuODM3LDM4LjcyNCBDMzIuNTgzLDQwLjM1MiAyNy45MTksNDIgMTkuNDk3LDQyIEMxMS4wNzIsNDIgNi40MDUsNDAuMzUyIDYuMTU1LDM4Ljc1MSBMMi40MzUsOS44MTQgQzUuOTQ1LDExLjkxNSAxMi43NDksMTMgMTkuNSwxMyBDMjYuMjUsMTMgMzMuMDU0LDExLjkxNSAzNi41NjUsOS44MTUgTDM0LjgxOCwyMy4zNjIgWiBNMzksNi41IEMzOSwzLjQzMSAzMC42NjEsMCAxOS41LDAgQzguMzM5LDAgLTMuNTUyNzEzNjhlLTE1LDMuNDMxIC0zLjU1MjcxMzY4ZS0xNSw2LjUgTC0zLjU1MjcxMzY4ZS0xNSw3LjA0MyBMNC4xNzQsMzkuMDMzIEM0Ljg3NSw0My41MTYgMTUuMTIzLDQ0IDE5LjQ5Nyw0NCBDMjMuODY5LDQ0IDM0LjExMyw0My41MTYgMzQuODE4LDM5LjAwNyBMMzYuNTAxLDI1Ljk0NyBDMzcuNzc4LDI2LjI3OSAzOC44MTIsMjYuNDU2IDM5LjYxNiwyNi40NTUgQzQwLjYwNiwyNi40NTUgNDEuMjczLDI2LjIwMyA0MS42OTcsMjUuNjk3IEM0Mi4wNDcsMjUuMjgxIDQyLjE4NSwyNC43NTYgNDIuMDg1LDI0LjIyMSBDNDEuODU3LDIzIDQwLjQwMywyMS43MTIgMzcuMzcsMjAuMDQ0IEwzNy4yNywxOS45ODkgTDM5LDcuMDQ0IEwzOSw2LjUgWiIgaWQ9IkFtYXpvbi1TaW1wbGUtU3RvcmFnZS1TZXJ2aWNlLUljb25fNDhfU3F1aWQiPjwvcGF0aD4KICAgICAgICA8L2c+CiAgICA8L2c+Cjwvc3ZnPg==;points=[[0,0],[1,0],[1,1],[0,1],[0,0.167],[0.167,0],[1,0.167],[0.167,1],[0,0.333],[0.333,0],[1,0.333],[0.333,1],[0,0.5],[0.5,0],[1,0.5],[0.5,1],[0,0.667],[0.667,0],[1,0.667],[0.667,1],[0,0.833],[0.833,0],[1,0.833],[0.833,1]]" parent="EOZyY3MgEhMXIJWPQMr4-1" vertex="1">
          <mxGeometry x="260" y="55.76894223555889" width="80" height="80" as="geometry" />
        </mxCell>
        <mxCell id="EOZyY3MgEhMXIJWPQMr4-16" value="" style="edgeStyle=orthogonalEdgeStyle;rounded=0;orthogonalLoop=1;jettySize=auto;html=1;" parent="EOZyY3MgEhMXIJWPQMr4-1" source="EOZyY3MgEhMXIJWPQMr4-4" target="EOZyY3MgEhMXIJWPQMr4-5" edge="1">
          <mxGeometry relative="1" as="geometry" />
        </mxCell>
        <mxCell id="EOZyY3MgEhMXIJWPQMr4-4" style="shape=image;verticalLabelPosition=bottom;verticalAlign=top;imageAspect=0;aspect=fixed;image=data:image/svg+xml,PD94bWwgdmVyc2lvbj0iMS4wIiBlbmNvZGluZz0iVVRGLTgiPz4KPHN2ZyB3aWR0aD0iNjRweCIgaGVpZ2h0PSI2NHB4IiB2aWV3Qm94PSIwIDAgNjQgNjQiIHZlcnNpb249IjEuMSIgeG1sbnM9Imh0dHA6Ly93d3cudzMub3JnLzIwMDAvc3ZnIiB4bWxuczp4bGluaz0iaHR0cDovL3d3dy53My5vcmcvMTk5OS94bGluayI+CiAgICA8dGl0bGU+SWNvbi1BcmNoaXRlY3R1cmUvNDgvQXJjaF9BbWF6b24tQ2xvdWRGcm9udF80ODwvdGl0bGU+CiAgICA8ZyBpZD0iSWNvbi1BcmNoaXRlY3R1cmUvNDgvQXJjaF9BbWF6b24tQ2xvdWRGcm9udF80OCIgc3Ryb2tlPSJub25lIiBzdHJva2Utd2lkdGg9IjEiIGZpbGw9Im5vbmUiIGZpbGwtcnVsZT0iZXZlbm9kZCI+CiAgICAgICAgPGcgaWQ9Ikljb24tQXJjaGl0ZWN0dXJlLUJHLzQ4L05ldHdvcmtpbmctQ29udGVudC1EZWxpdmVyeSIgZmlsbD0iIzhDNEZGRiI+CiAgICAgICAgICAgIDxyZWN0IGlkPSJSZWN0YW5nbGUiIHg9IjAiIHk9IjAiIHdpZHRoPSI2NCIgaGVpZ2h0PSI2NCI+PC9yZWN0PgogICAgICAgIDwvZz4KICAgICAgICA8cGF0aCBkPSJNNDEuNSw0My41IEM0MC4zOTcsNDMuNSAzOS41LDQyLjYwMyAzOS41LDQxLjUgQzM5LjUsNDAuMzk3IDQwLjM5NywzOS41IDQxLjUsMzkuNSBDNDIuNjAzLDM5LjUgNDMuNSw0MC4zOTcgNDMuNSw0MS41IEM0My41LDQyLjYwMyA0Mi42MDMsNDMuNSA0MS41LDQzLjUgTDQxLjUsNDMuNSBaIE00MS41LDM3LjUgQzM5LjI5NCwzNy41IDM3LjUsMzkuMjk0IDM3LjUsNDEuNSBDMzcuNSw0My43MDYgMzkuMjk0LDQ1LjUgNDEuNSw0NS41IEM0My43MDYsNDUuNSA0NS41LDQzLjcwNiA0NS41LDQxLjUgQzQ1LjUsMzkuMjk0IDQzLjcwNiwzNy41IDQxLjUsMzcuNSBMNDEuNSwzNy41IFogTTIyLjUsMzIuNSBDMjEuMzk3LDMyLjUgMjAuNSwzMS42MDMgMjAuNSwzMC41IEMyMC41LDI5LjM5NyAyMS4zOTcsMjguNSAyMi41LDI4LjUgQzIzLjYwMywyOC41IDI0LjUsMjkuMzk3IDI0LjUsMzAuNSBDMjQuNSwzMS42MDMgMjMuNjAzLDMyLjUgMjIuNSwzMi41IEwyMi41LDMyLjUgWiBNMjIuNSwyNi41IEMyMC4yOTQsMjYuNSAxOC41LDI4LjI5NCAxOC41LDMwLjUgQzE4LjUsMzIuNzA2IDIwLjI5NCwzNC41IDIyLjUsMzQuNSBDMjQuNzA2LDM0LjUgMjYuNSwzMi43MDYgMjYuNSwzMC41IEMyNi41LDI4LjI5NCAyNC43MDYsMjYuNSAyMi41LDI2LjUgTDIyLjUsMjYuNSBaIE00NS4zODksNDcuMTI0IEM0NS4xNjgsNDYuNjA3IDQ0LjkzNiw0Ni4wOTQgNDQuNjg1LDQ1LjU5MSBMNDIuODk2LDQ2LjQ4NiBDNDMuMTcsNDcuMDM1IDQzLjQyLDQ3LjU5OSA0My42NTYsNDguMTY1IEM0Mi44Miw0OC43NjIgNDEuOTQzLDQ5LjI4OCA0MS4wMjgsNDkuNzQgQzQxLjM4NCw0OC44NjUgNDEuNjk0LDQ3Ljk3NSA0MS45NzQsNDcuMDEyIEw0MC4wNTQsNDYuNDU0IEMzOS41NjQsNDguMTM0IDM4Ljk4NSw0OS41ODEgMzguMTg0LDUxLjEzMyBDMzYuMzU3LDUxLjY5OCAzNC40NTIsNTIgMzIuNSw1MiBDMjkuNDY1LDUyIDI2LjU2Nyw1MS4zMTQgMjMuODcxLDQ5Ljk3NiBDMjIuNTAzLDQ2LjYxNSAyMS44MzgsNDMuNTM0IDIxLjgzOCw0MC41NTkgQzIxLjgzOCwzOS4yNjcgMjIuMDYzLDM4LjE5NiAyMi4zMjIsMzYuOTU2IEMyMi4zODYsMzYuNjUyIDIyLjQ1LDM2LjM0MyAyMi41MTQsMzYuMDI0IEwyMC41NTEsMzUuNjM4IEMyMC40OSwzNS45NDkgMjAuNDI3LDM2LjI1IDIwLjM2NSwzNi41NDUgQzIwLjA5NCwzNy44MzggMTkuODM4LDM5LjA2IDE5LjgzOCw0MC41NTkgQzE5LjgzOCw0My4wNzQgMjAuMjc0LDQ1LjY0NCAyMS4xNTQsNDguMzU0IEMxNi4wNzIsNDQuNzI0IDEzLDM4Ljg1NCAxMywzMi41IEMxMywzMi4zODkgMTMuMDEsMzIuMjczIDEzLjAxMiwzMi4xNjEgQzE0LjY0MiwzMS43OTkgMTYuMTIzLDMxLjYxNCAxNy44NTQsMzEuNTcxIEwxNy44MDQsMjkuNTcyIEMxNi4xNjksMjkuNjEyIDE0LjY5NCwyOS43NzkgMTMuMTYzLDMwLjA4NCBDMTQuMDgxLDIyLjY4MyAxOS4yMTIsMTYuMzk0IDI2LjMyMywxNC4wMTkgQzI3Ljg3MywxNC44MTggMjkuMDIsMTUuNTI0IDMwLjEzNSwxNi4zNyBMMzEuMzQ0LDE0Ljc3NiBDMzAuNjQ2LDE0LjI0OCAyOS45MzQsMTMuNzcxIDI5LjE0NiwxMy4yOTkgQzMwLjI0NCwxMy4xMDggMzEuMzYzLDEzIDMyLjUsMTMgQzM1LjAzMiwxMyAzNy41MzIsMTMuNDk0IDM5Ljg0OSwxNC40MzkgQzM5LjM0MiwxNC41OTMgMzguODIsMTQuNzYzIDM4LjI0MywxNC45NzEgTDM4LjkyMywxNi44NTIgQzQwLjMxNiwxNi4zNDkgNDEuNDA4LDE2LjA0IDQyLjU3MSwxNS44MjEgQzQ4LjM5OSwxOS4zNDEgNTIsMjUuNjY3IDUyLDMyLjUgQzUyLDM4LjE1NiA0OS42MDUsNDMuNDE2IDQ1LjM4OSw0Ny4xMjQgTDQ1LjM4OSw0Ny4xMjQgWiBNNDMuMDA4LDEzLjc0OSBDMzkuODI2LDExLjk1IDM2LjE5MiwxMSAzMi41LDExIEMzMC4zOTIsMTEgMjguMzI0LDExLjMwMSAyNi4zNTcsMTEuODk1IEMxNy43MjMsMTQuNDY0IDExLjU2OCwyMi4yMyAxMS4wNDUsMzEuMTk2IEMxMS4wMSwzMS42MjUgMTEsMzIuMDYyIDExLDMyLjUgQzExLDQwLjQ0NCAxNS4zNTIsNDcuNzA3IDIyLjM1NCw1MS40NTUgQzI1LjQ1OSw1My4xMiAyOC45NjgsNTQgMzIuNSw1NCBDMzQuODkyLDU0IDM3LjIyOSw1My42MSAzOS40MzcsNTIuODQzIEM0MS42ODQsNTIuMDg2IDQzLjc3Myw1MC45NjMgNDUuNjQ2LDQ5LjUwNyBDNTAuOTU1LDQ1LjM5OSA1NCwzOS4yIDU0LDMyLjUgQzU0LDI0LjczMiA0OS43ODcsMTcuNTQ2IDQzLjAwOCwxMy43NDkgTDQzLjAwOCwxMy43NDkgWiBNMzguMzg0LDM3LjQxMSBMMzcuMDAzLDM4Ljg1OCBDMzQuMDIyLDM2LjAxNSAzMS4wNDcsMzQuMTQ2IDI3LjYzNywzMi45NzUgTDI4LjI4NywzMS4wODMgQzMxLjk3OSwzMi4zNTEgMzUuMTg4LDM0LjM2MiAzOC4zODQsMzcuNDExIEwzOC4zODQsMzcuNDExIFogTTM4LjQ0NCwyMi4zNjQgQzQxLjI4MiwyNi42OTIgNDIuODgsMzEuNDQ0IDQzLjE5MywzNi40ODggTDQxLjE5NywzNi42MTIgQzQwLjkwNSwzMS45MTkgMzkuNDE3LDI3LjQ5NSAzNi43NzIsMjMuNDYgTDM4LjQ0NCwyMi4zNjQgWiBNMjYuNDUxLDI2Ljc5NyBMMjQuNzczLDI1LjcwOCBDMjYuMzE2LDIzLjMzMiAyNy42MzksMjEuNzU4IDI5LjMzNiwyMC4yNzggTDMwLjY1LDIxLjc4NiBDMjkuMTAzLDIzLjEzNSAyNy44ODYsMjQuNTg3IDI2LjQ1MSwyNi43OTcgTDI2LjQ1MSwyNi43OTcgWiBNMzQuNSwxNi41IEMzNS42MDMsMTYuNSAzNi41LDE3LjM5NyAzNi41LDE4LjUgQzM2LjUsMTkuNjAzIDM1LjYwMywyMC41IDM0LjUsMjAuNSBDMzMuMzk3LDIwLjUgMzIuNSwxOS42MDMgMzIuNSwxOC41IEMzMi41LDE3LjM5NyAzMy4zOTcsMTYuNSAzNC41LDE2LjUgTDM0LjUsMTYuNSBaIE0zNC41LDIyLjUgQzM2LjcwNiwyMi41IDM4LjUsMjAuNzA2IDM4LjUsMTguNSBDMzguNSwxNi4yOTQgMzYuNzA2LDE0LjUgMzQuNSwxNC41IEMzMi4yOTQsMTQuNSAzMC41LDE2LjI5NCAzMC41LDE4LjUgQzMwLjUsMjAuNzA2IDMyLjI5NCwyMi41IDM0LjUsMjIuNSBMMzQuNSwyMi41IFoiIGlkPSJBbWF6b24tQ2xvdWRGcm9udF9JY29uXzQ4X1NxdWlkIiBmaWxsPSIjRkZGRkZGIj48L3BhdGg+CiAgICA8L2c+Cjwvc3ZnPg==;points=[[0,0],[1,0],[1,1],[0,1],[0,0.167],[0.167,0],[1,0.167],[0.167,1],[0,0.333],[0.333,0],[1,0.333],[0.333,1],[0,0.5],[0.5,0],[1,0.5],[0.5,1],[0,0.667],[0.667,0],[1,0.667],[0.667,1],[0,0.833],[0.833,0],[1,0.833],[0.833,1]]" parent="EOZyY3MgEhMXIJWPQMr4-1" vertex="1">
          <mxGeometry x="100" y="55.76894223555889" width="80" height="80" as="geometry" />
        </mxCell>
        <mxCell id="EOZyY3MgEhMXIJWPQMr4-17" value="" style="edgeStyle=orthogonalEdgeStyle;rounded=0;orthogonalLoop=1;jettySize=auto;html=1;" parent="EOZyY3MgEhMXIJWPQMr4-1" source="EOZyY3MgEhMXIJWPQMr4-9" target="EOZyY3MgEhMXIJWPQMr4-10" edge="1">
          <mxGeometry relative="1" as="geometry" />
        </mxCell>
        <mxCell id="EOZyY3MgEhMXIJWPQMr4-9" value="" style="sketch=0;points=[[0,0,0],[0.25,0,0],[0.5,0,0],[0.75,0,0],[1,0,0],[0,1,0],[0.25,1,0],[0.5,1,0],[0.75,1,0],[1,1,0],[0,0.25,0],[0,0.5,0],[0,0.75,0],[1,0.25,0],[1,0.5,0],[1,0.75,0]];outlineConnect=0;fontColor=#232F3E;fillColor=#E7157B;strokeColor=#ffffff;dashed=0;verticalLabelPosition=bottom;verticalAlign=top;align=center;html=1;fontSize=12;fontStyle=0;aspect=fixed;shape=mxgraph.aws4.resourceIcon;resIcon=mxgraph.aws4.api_gateway;" parent="EOZyY3MgEhMXIJWPQMr4-1" vertex="1">
          <mxGeometry x="100" y="243.87333083270815" width="80" height="80" as="geometry" />
        </mxCell>
        <mxCell id="EOZyY3MgEhMXIJWPQMr4-18" value="" style="edgeStyle=orthogonalEdgeStyle;rounded=0;orthogonalLoop=1;jettySize=auto;html=1;" parent="EOZyY3MgEhMXIJWPQMr4-1" source="EOZyY3MgEhMXIJWPQMr4-10" target="EOZyY3MgEhMXIJWPQMr4-11" edge="1">
          <mxGeometry relative="1" as="geometry" />
        </mxCell>
        <mxCell id="EOZyY3MgEhMXIJWPQMr4-10" style="shape=image;verticalLabelPosition=bottom;verticalAlign=top;imageAspect=0;aspect=fixed;image=data:image/svg+xml,PD94bWwgdmVyc2lvbj0iMS4wIiBlbmNvZGluZz0iVVRGLTgiPz4KPHN2ZyB3aWR0aD0iNjRweCIgaGVpZ2h0PSI2NHB4IiB2aWV3Qm94PSIwIDAgNjQgNjQiIHZlcnNpb249IjEuMSIgeG1sbnM9Imh0dHA6Ly93d3cudzMub3JnLzIwMDAvc3ZnIiB4bWxuczp4bGluaz0iaHR0cDovL3d3dy53My5vcmcvMTk5OS94bGluayI+CiAgICA8dGl0bGU+SWNvbi1BcmNoaXRlY3R1cmUvNDgvQXJjaF9BV1MtTGFtYmRhXzQ4PC90aXRsZT4KICAgIDxnIGlkPSJJY29uLUFyY2hpdGVjdHVyZS80OC9BcmNoX0FXUy1MYW1iZGFfNDgiIHN0cm9rZT0ibm9uZSIgc3Ryb2tlLXdpZHRoPSIxIiBmaWxsPSJub25lIiBmaWxsLXJ1bGU9ImV2ZW5vZGQiPgogICAgICAgIDxnIGlkPSJJY29uLUFyY2hpdGVjdHVyZS1CRy80OC9Db21wdXRlIiBmaWxsPSIjRUQ3MTAwIj4KICAgICAgICAgICAgPHJlY3QgaWQ9IlJlY3RhbmdsZSIgeD0iMCIgeT0iMCIgd2lkdGg9IjY0IiBoZWlnaHQ9IjY0Ij48L3JlY3Q+CiAgICAgICAgPC9nPgogICAgICAgIDxwYXRoIGQ9Ik0yMi42Nzk0MDk0LDUyIEwxMy41NzQwNzAxLDUyIEwyMy44Mzc2MTg5LDMwLjQxIEwyOC4zOTk3NDk0LDM5Ljg2MSBMMjIuNjc5NDA5NCw1MiBaIE0yNC43MjY5NDA2LDI3LjY2NyBDMjQuNTYwNjI4NSwyNy4zMjEgMjQuMjEyMDcwMiwyNy4xMDMgMjMuODMwNjQ3OCwyNy4xMDMgTDIzLjgyNzY2MDEsMjcuMTAzIEMyMy40NDUyNDE4LDI3LjEwNCAyMy4wOTY2ODM1LDI3LjMyNSAyMi45MzIzNjMyLDI3LjY3MiBMMTEuMDk3MzE0Myw1Mi41NjkgQzEwLjk0OTkyMzksNTIuODc5IDEwLjk3MDgzNzQsNTMuMjQzIDExLjE1NDA3OTUsNTMuNTM0IEMxMS4zMzUzMjk4LDUzLjgyNCAxMS42NTQwMTE3LDU0IDExLjk5NTU5ODksNTQgTDIzLjMwOTgwMiw1NCBDMjMuNjk1MjA4LDU0IDI0LjA0NDc2MjIsNTMuNzc3IDI0LjIxMDA3ODQsNTMuNDI4IEwzMC40MDQ0NTc3LDQwLjI4NCBDMzAuNTMyOTI2NCw0MC4wMSAzMC41MzE5MzA1LDM5LjY5MiAzMC4zOTk0NzgzLDM5LjQyIEwyNC43MjY5NDA2LDI3LjY2NyBaIE01MS4wMDgyMzgyLDUyIEw0MS45ODU1NTcsNTIgTDI2Ljk1NDcyNjIsMTkuNTc4IEMyNi43OTE0MDE3LDE5LjIyNiAyNi40Mzg4NTk5LDE5IDI2LjA1MjQ1ODEsMTkgTDIwLjEyNzk2MjUsMTkgTDIwLjEzNDkzMzcsMTIgTDMxLjgxNDYyNTEsMTIgTDQ2Ljc3NDc0ODMsNDQuNDIgQzQ2LjkzODA3MjgsNDQuNzc0IDQ3LjI5MDYxNDcsNDUgNDcuNjc5MDA4Miw0NSBMNTEuMDA4MjM4Miw0NSBMNTEuMDA4MjM4Miw1MiBaIE01Mi4wMDQxMTkxLDQzIEw0OC4zMTQzODAzLDQzIEwzMy4zNTQyNTcsMTAuNTggQzMzLjE5MDkzMjYsMTAuMjI2IDMyLjgzODM5MDcsMTAgMzIuNDUwOTkzLDEwIEwxOS4xNDAwNDg2LDEwIEMxOC41OTEzMTgyLDEwIDE4LjE0NTE2MzYsMTAuNDQ3IDE4LjE0NDE2NzcsMTAuOTk5IEwxOC4xMzYyMDA2LDE5Ljk5OSBDMTguMTM2MjAwNiwyMC4yNjUgMTguMjQwNzY4MSwyMC41MTkgMTguNDI2OTk3OSwyMC43MDcgQzE4LjYxNDIyMzUsMjAuODk1IDE4Ljg2NzE3NzIsMjEgMTkuMTMxMDg1NywyMSBMMjUuNDE3MDg2MSwyMSBMNDAuNDQ3OTE2OCw1My40MjIgQzQwLjYxMTI0MTMsNTMuNzc0IDQwLjk2Mjc4NzMsNTQgNDEuMzUwMTg1LDU0IEw1Mi4wMDQxMTkxLDU0IEM1Mi41NTQ4NDEyLDU0IDUzLDUzLjU1MiA1Myw1MyBMNTMsNDQgQzUzLDQzLjQ0OCA1Mi41NTQ4NDEyLDQzIDUyLjAwNDExOTEsNDMgTDUyLjAwNDExOTEsNDMgWiIgaWQ9IkFXUy1MYW1iZGFfSWNvbl80OF9TcXVpZCIgZmlsbD0iI0ZGRkZGRiI+PC9wYXRoPgogICAgPC9nPgo8L3N2Zz4=;points=[[0,0],[1,0],[1,1],[0,1],[0,0.167],[0.167,0],[1,0.167],[0.167,1],[0,0.333],[0.333,0],[1,0.333],[0.333,1],[0,0.5],[0.5,0],[1,0.5],[0.5,1],[0,0.667],[0.667,0],[1,0.667],[0.667,1],[0,0.833],[0.833,0],[1,0.833],[0.833,1]]" parent="EOZyY3MgEhMXIJWPQMr4-1" vertex="1">
          <mxGeometry x="260" y="243.87333083270815" width="80" height="80" as="geometry" />
        </mxCell>
        <mxCell id="EOZyY3MgEhMXIJWPQMr4-11" style="shape=image;verticalLabelPosition=bottom;verticalAlign=top;imageAspect=0;aspect=fixed;image=data:image/svg+xml,PD94bWwgdmVyc2lvbj0iMS4wIiBlbmNvZGluZz0iVVRGLTgiPz4KPHN2ZyB3aWR0aD0iNjRweCIgaGVpZ2h0PSI2NHB4IiB2aWV3Qm94PSIwIDAgNjQgNjQiIHZlcnNpb249IjEuMSIgeG1sbnM9Imh0dHA6Ly93d3cudzMub3JnLzIwMDAvc3ZnIiB4bWxuczp4bGluaz0iaHR0cDovL3d3dy53My5vcmcvMTk5OS94bGluayI+CiAgICA8dGl0bGU+SWNvbi1BcmNoaXRlY3R1cmUvNDgvQXJjaF9BbWF6b24tRHluYW1vREJfNDg8L3RpdGxlPgogICAgPGcgaWQ9Ikljb24tQXJjaGl0ZWN0dXJlLzQ4L0FyY2hfQW1hem9uLUR5bmFtb0RCXzQ4IiBzdHJva2U9Im5vbmUiIHN0cm9rZS13aWR0aD0iMSIgZmlsbD0ibm9uZSIgZmlsbC1ydWxlPSJldmVub2RkIj4KICAgICAgICA8ZyBpZD0iSWNvbi1BcmNoaXRlY3R1cmUtQkcvNDgvRGF0YWJhc2UiIGZpbGw9IiNDOTI1RDEiPgogICAgICAgICAgICA8cmVjdCBpZD0iUmVjdGFuZ2xlIiB4PSIwIiB5PSIwIiB3aWR0aD0iNjQiIGhlaWdodD0iNjQiPjwvcmVjdD4KICAgICAgICA8L2c+CiAgICAgICAgPHBhdGggZD0iTTQ2LjU4NTgyODcsMjUuMjQ5Mjc2MyBMNDMuMDAwODQ3NSwyNS4yNDkyNzYzIEM0Mi42NzI4NDkzLDI1LjI0OTI3NjMgNDIuMzY1ODUwOSwyNS4wODY1MjMgNDIuMTc4ODUxOSwyNC44MTQ1OTM2IEM0MS45OTE4NTI4LDI0LjU0MTY1MzMgNDEuOTQ4ODUzMSwyNC4xOTM5MDcxIDQyLjA2NDg1MjUsMjMuODgzNTYzOCBMNDQuNTU3ODM5NCwxNy4xNjIxNTYgTDM1LjY0NDg4NjIsMTcuMTYyMTU2IEwzMS41NTM5MDc3LDI2LjI2MDE2NjMgTDM2LjAwMDg4NDMsMjYuMjYwMTY2MyBDMzYuMzIxODgyNywyNi4yNjAxNjYzIDM2LjYyMzg4MTEsMjYuNDE1ODQzNCAzNi44MTI4ODAxLDI2LjY4MDY5NjYgQzM2Ljk5OTg3OTEsMjYuOTQzNTI4IDM3LjA1MTg3ODgsMjcuMjgyMTc2MiAzNi45NDg4Nzk0LDI3LjU5MDQ5NzYgTDMzLjI4ODg5ODYsMzguNjkxMDgxMiBMNDYuNTg1ODI4NywyNS4yNDkyNzYzIFogTTQ5LjcwNjgxMjMsMjQuOTUzMDg1NSBMMzEuNzA3OTA2OSw0My4xNDkxMDYzIEMzMS41MTU5MDc5LDQzLjM0NDIwODEgMzEuMjU4OTA5Myw0My40NDUyOTcxIDMxLjAwMDkxMDYsNDMuNDQ1Mjk3MSBDMzAuODE4OTExNiw0My40NDUyOTcxIDMwLjYzNzkxMjUsNDMuMzk1NzYzNSAzMC40NzU5MTM0LDQzLjI5NDY3NDQgQzMwLjA4MDkxNTUsNDMuMDQ4MDE3MyAyOS45MDQ5MTY0LDQyLjU1OTc1NzQgMzAuMDUyOTE1Niw0Mi4xMTQ5NjU4IEwzNC42MTI4OTE2LDI4LjI4MTk0NjQgTDMwLjAwMDkxNTksMjguMjgxOTQ2NCBDMjkuNjYwOTE3NywyOC4yODE5NDY0IDI5LjM0NDkxOTMsMjguMTA3MDYyNCAyOS4xNTk5MjAzLDI3LjgxODk1ODggQzI4Ljk3NjkyMTMsMjcuNTI4ODMzMyAyOC45NDk5MjE0LDI3LjE2NTkyMzggMjkuMDkwOTIwNywyNi44NTI1NDc5IEwzNC4wOTA4OTQ0LDE1LjczMjc1NzQgQzM0LjI1Mjg5MzUsMTUuMzcxODY5NyAzNC42MDc4OTE3LDE1LjE0MDM3NTkgMzUuMDAwODg5NiwxNS4xNDAzNzU5IEw0Ni4wMDA4MzE4LDE1LjE0MDM3NTkgQzQ2LjMyODgzLDE1LjE0MDM3NTkgNDYuNjM1ODI4NCwxNS4zMDMxMjkyIDQ2LjgyMjgyNzQsMTUuNTc1MDU4NiBDNDcuMDA5ODI2NSwxNS44NDc5OTg5IDQ3LjA1MjgyNjIsMTYuMTk1NzQ1MSA0Ni45Mzc4MjY4LDE2LjUwNjA4ODMgTDQ0LjQ0Mzg0LDIzLjIyNzQ5NjIgTDQ4Ljk5OTgxNiwyMy4yMjc0OTYyIEM0OS40MDM4MTM5LDIzLjIyNzQ5NjIgNDkuNzY5ODEyLDIzLjQ3NDE1MzQgNDkuOTIzODExMSwyMy44NTEyMTU0IEM1MC4wNzg4MTAzLDI0LjIyOTI4ODIgNDkuOTkyODEwOCwyNC42NjM5NzEgNDkuNzA2ODEyMywyNC45NTMwODU1IEw0OS43MDY4MTIzLDI0Ljk1MzA4NTUgWiBNNDEuMDAwODU4MSw0NC4yMTk2Mzg4IEMzOC4yOTA4NzIzLDQ2LjEwNTk1OTcgMzMuMzEzODk4NSw0Ny4xMDE2ODYzIDI4LjUzMjkyMzYsNDcuMTAxNjg2MyBDMjMuNzE2OTQ4OSw0Ny4xMDE2ODYzIDE4LjY5NTk3NTMsNDYuMDkyODE4MSAxNS45OTk5ODk1LDQ0LjE3ODE5MjMgTDE2LjAwMDk4OTUsNDcuOTk0MzAyMyBDMTYuMDAwOTg5NSw0OS42NTgyMjczIDIwLjc2ODk2NDQsNTEuOTc4MjE5OSAyOC41MzI5MjM2LDUxLjk3ODIxOTkgQzM2LjAyNzg4NDIsNTEuOTc4MjE5OSA0MS4wMDA4NTgxLDQ5LjI3NjExMDggNDEuMDAwODU4MSw0Ny40ODg4NTcyIEw0MS4wMDA4NTgxLDQ0LjIxOTYzODggWiBNNDMuMDY0ODQ3Miw0MC45NTA0MjA0IEM0My4wNjQ4NDcyLDQxLjEzNzQzNTEgNDMuMDMyODQ3NCw0MS4zMTczNzM1IDQzLjAwMDg0NzUsNDEuNDk2MzAxMSBMNDMuMDAwODQ3NSw0Ny40ODg4NTcyIEM0My4wMDA4NDc1LDUxLjA3OTUzODcgMzYuNTEwODgxNyw1NCAyOC41MzI5MjM2LDU0IEMyMS42Mjk5NTk5LDU0IDE0LjY2MTk5NjUsNTIuMTEwNjQ2NSAxNC4wNTk5OTk3LDQ4LjQ5OTc0NzMgTDE0LjAwMSw0OC40OTk3NDczIEwxNCw0My40NDUyOTcxIEwxNCwzMC4zMDM3MjY1IEwxNCwxNi4xNTEyNjU5IEwxNC4wMDEsMTYuMTUxMjY1OSBDMTQuMDAxLDEyLjE1NTIxNzYgMjEuNDg3OTYwNiwxMCAyOC41MzI5MjM2LDEwIEMzMi40NzM5MDI5LDEwIDM2LjI2Mjg4MywxMC42Mzk4OTM0IDM4LjkyOTg2ODksMTEuNzU1OTE2IEwzOC4xNjM4NzMsMTMuNjI0MDQwOCBDMzUuNzMxODg1OCwxMi42MDUwNjM2IDMyLjIyMDkwNDIsMTIuMDIxNzgwMSAyOC41MzI5MjM2LDEyLjAyMTc4MDEgQzIwLjc2ODk2NDQsMTIuMDIxNzgwMSAxNi4wMDA5ODk1LDE0LjQyNjY4NzUgMTYuMDAwOTg5NSwxNi4xNTEyNjU5IEMxNi4wMDA5ODk1LDE3Ljg3NTg0NDMgMjAuNzY4OTY0NCwyMC4yODA3NTE3IDI4LjUzMjkyMzYsMjAuMjgwNzUxNyBDMjguNzI3OTIyNiwyMC4yODA3NTE3IDI4LjkzMTkyMTUsMjAuMjgxNzYyNiAyOS4xMjg5MjA1LDIwLjI3MzY3NTUgTDI5LjIwNjkyMDEsMjIuMjkzNDMzOCBDMjguOTgxOTIxMiwyMi4zMDI1MzE4IDI4Ljc1NzkyMjQsMjIuMzAyNTMxOCAyOC41MzI5MjM2LDIyLjMwMjUzMTggQzIzLjcxNTk0ODksMjIuMzAyNTMxOCAxOC42OTU5NzUzLDIxLjI5MzY2MzYgMTUuOTk5OTg5NSwxOS4zNzkwMzc4IEwxNS45OTk5ODk1LDIzLjczNjk4NDggTDE2LjAwMDk4OTUsMjMuNzM2OTg0OCBMMTYuMDAwOTg5NSwyMy43NTQxNjk5IEMxNi4wMDU5ODk1LDI0LjI4Mzg3NjMgMTYuNDg5OTg2OSwyNC44OTc0ODY2IDE3LjM2NDk4MjMsMjUuNDczNjkzOSBDMTkuMzQ2OTcxOSwyNi43NjE1Njc4IDIyLjkxNDk1MzEsMjcuNjQyMDUzIDI2LjkwMzkzMjIsMjcuODI1MDI0MSBMMjYuODEyOTMyNiwyOS44NDQ3ODI0IEMyMi42ODY5NTQzLDI5LjY1NDczNTEgMTkuMDYyOTczNCwyOC43NzYyNzE3IDE2LjcyNjk4NTcsMjcuNDI4NzU1MiBDMTYuNDE2OTg3MywyNy43MjY5Njc4IDE2LjAwMDk4OTUsMjguNDg1MTM1MyAxNi4wMDA5ODk1LDI4Ljg5NTU1NjcgQzE2LjAwMDk4OTUsMzAuNjIwMTM1MSAyMC43Njg5NjQ0LDMzLjAyNTA0MjUgMjguNTMyOTIzNiwzMy4wMjUwNDI1IEMyOS4yNzA5MTk3LDMzLjAyNTA0MjUgMjkuOTk3OTE1OSwzMi45OTk3NzAzIDMwLjY5NDkxMjIsMzIuOTUwMjM2NiBMMzAuODM1OTExNSwzNC45NjY5NjIzIEMzMC4wOTE5MTU0LDM1LjAyMDUzOTQgMjkuMzE2OTE5NSwzNS4wNDY4MjI2IDI4LjUzMjkyMzYsMzUuMDQ2ODIyNiBDMjMuNzE1OTQ4OSwzNS4wNDY4MjI2IDE4LjY5NTk3NTMsMzQuMDM3OTU0MyAxNS45OTk5ODk1LDMyLjEyMzMyODYgTDE1Ljk5OTk4OTUsMzUuNzkyODU5NCBMMTYuMDAwOTg5NSwzNS43OTI4NTk0IEMxNi4wMDU5ODk1LDM2LjMzOTc1MSAxNi40ODk5ODY5LDM2Ljk1MzM2MTIgMTcuMzY0OTgyMywzNy41Mjk1Njg1IEMxOS42MzI5NzA0LDM5LjAwNDQ1NzEgMjMuOTEzOTQ3OSwzOS45MjMzNTYyIDI4LjUzMjkyMzYsMzkuOTIzMzU2MiBMMjguODYyOTIxOSwzOS45MjMzNTYyIEwyOC44NjI5MjE5LDQxLjk0NTEzNjIgTDI4LjUzMjkyMzYsNDEuOTQ1MTM2MiBDMjMuNzU0OTQ4Nyw0MS45NDUxMzYyIDE4LjY3Mjk3NTQsNDAuOTM3Mjc4OSAxNi4wMDA5ODk1LDM5LjQwMTczNjkgQzE1LjY3ODk5MTIsMzkuNjk5OTQ5NSAxNi4wMDA5ODk1LDQwLjQxMjYyNjkgMTYuMDAwOTg5NSw0MC45NTA0MjA0IEMxNi4wMDA5ODk1LDQyLjY3NDk5ODkgMjAuNzY4OTY0NCw0NS4wNzk5MDYzIDI4LjUzMjkyMzYsNDUuMDc5OTA2MyBDMzYuMjk3ODgyOCw0NS4wNzk5MDYzIDQxLjA2NDg1NzcsNDIuNjc0OTk4OSA0MS4wNjQ4NTc3LDQwLjk1MDQyMDQgQzQxLjA2NDg1NzcsNDAuMzQwODUzNyA0MC40NjU4NjA5LDM5Ljc3NTc2NjIgMzkuOTcyODYzNSwzOS40MTE4NDU4IEMzOS41NjM4NjU2LDM5LjY1ODUwMyAzOS4xMTM4NjgsMzkuODk1MDUxMiAzOC42MDA4NzA3LDQwLjExMTM4MTcgTDM3LjgzMjg3NDcsMzguMjQ0MjY3OCBDMzguMzYzODcxOSwzOC4wMjA4NjExIDM4LjgyMjg2OTUsMzcuNzgxMjgwMiAzOS4xOTY4Njc1LDM3LjUzMjYwMTIgQzQwLjI5Nzg2MTcsMzYuNzk4Njk1IDQxLjAwMDg1ODEsMzUuNzU0NDQ1NiA0MS4wMDA4NTgxLDM1LjM1ODE3NjcgTDQzLjAwMDg0NzUsMzUuMzU4MTc2NyBDNDMuMDAwODQ3NSwzNi4yOTgzMDQ1IDQyLjM3OTg1MDgsMzcuMzA1MTUwOSA0MS41ODM4NTUsMzguMTMzMDY5OSBDNDIuNzc1ODQ4NywzOS4xNzMyNzU3IDQzLjA2NDg0NzIsNDAuMjExNDU5OCA0My4wNjQ4NDcyLDQwLjk1MDQyMDQgTDQzLjA2NDg0NzIsNDAuOTUwNDIwNCBaIE0xNy4xNDE5ODM1LDQ4LjM4ODU0OTQgQzE3LjkzMjk3OTMsNDguNzk2OTQ5IDE4Ljg1Nzk3NDUsNDkuMTYwODY5NCAxOS44OTM5NjksNDkuNDY5MTkwOCBMMjAuNDU3OTY2LDQ3LjUyOTI5MjggQzE5LjU0MTk3MDksNDcuMjU3MzYzNCAxOC43MzE5NzUxLDQ2LjkzOTk0MzkgMTguMDUxOTc4Nyw0Ni41ODgxNTQyIEwxNy4xNDE5ODM1LDQ4LjM4ODU0OTQgWiBNMTkuODkzOTY5LDM3LjMzODUxMDMgTDIwLjQ1Nzk2NiwzNS4zOTk2MjMyIEMxOS41NDE5NzA5LDM1LjEyNjY4MjkgMTguNzMxOTc1MSwzNC44MTAyNzQzIDE4LjA1MTk3ODcsMzQuNDU4NDg0NiBMMTcuMTQxOTgzNSwzNi4yNTc4Njg5IEMxNy45MzI5NzkzLDM2LjY2NzI3OTMgMTguODU3OTc0NSwzNy4wMzAxODg5IDE5Ljg5Mzk2OSwzNy4zMzg1MTAzIEwxOS44OTM5NjksMzcuMzM4NTEwMyBaIE0xNy4xNDE5ODM1LDI0LjEyODE5OTIgTDE4LjA1MTk3ODcsMjIuMzI3ODA0MSBDMTguNzMxOTc1MSwyMi42Nzk1OTM4IDE5LjU0MTk3MDksMjIuOTk2MDAyNCAyMC40NTc5NjYsMjMuMjY4OTQyNyBMMTkuODkzOTY5LDI1LjIwODg0MDcgQzE4Ljg1Nzk3NDUsMjQuOTAwNTE5MiAxNy45MzI5NzkzLDI0LjUzNjU5ODggMTcuMTQxOTgzNSwyNC4xMjgxOTkyIEwxNy4xNDE5ODM1LDI0LjEyODE5OTIgWiIgaWQ9IkFtYXpvbi1EeW5hbW9EQl9JY29uXzQ4X1NxdWlkIiBmaWxsPSIjRkZGRkZGIj48L3BhdGg+CiAgICA8L2c+Cjwvc3ZnPg==;points=[[0,0],[1,0],[1,1],[0,1],[0,0.167],[0.167,0],[1,0.167],[0.167,1],[0,0.333],[0.333,0],[1,0.333],[0.333,1],[0,0.5],[0.5,0],[1,0.5],[0.5,1],[0,0.667],[0.667,0],[1,0.667],[0.667,1],[0,0.833],[0.833,0],[1,0.833],[0.833,1]]" parent="EOZyY3MgEhMXIJWPQMr4-1" vertex="1">
          <mxGeometry x="420" y="243.87333083270815" width="80" height="80" as="geometry" />
        </mxCell>
        <mxCell id="b9iFle_TsSmMyPbpANP3-1" value="" style="group" vertex="1" connectable="0" parent="EOZyY3MgEhMXIJWPQMr4-1">
          <mxGeometry x="20" y="345.48387096774195" width="620" height="264.19354838709677" as="geometry" />
        </mxCell>
        <mxCell id="b9iFle_TsSmMyPbpANP3-2" value="VPC" style="whiteSpace=wrap;html=1;strokeColor=#8C4FFF;fillColor=none;container=0;verticalAlign=top;align=left;spacingLeft=35;spacingTop=3;fontColor=#8C4FFF;" vertex="1" parent="b9iFle_TsSmMyPbpANP3-1">
          <mxGeometry width="620" height="264.19354838709677" as="geometry" />
        </mxCell>
        <mxCell id="b9iFle_TsSmMyPbpANP3-3" value="" style="shape=image;verticalLabelPosition=bottom;labelBackgroundColor=default;verticalAlign=top;aspect=fixed;imageAspect=0;image=data:image/svg+xml,PHN2ZyB4bWxuczp4bGluaz0iaHR0cDovL3d3dy53My5vcmcvMTk5OS94bGluayIgeG1sbnM9Imh0dHA6Ly93d3cudzMub3JnLzIwMDAvc3ZnIiB2ZXJzaW9uPSIxLjEiIHZpZXdCb3g9IjAgMCA0MCA0MCIgaGVpZ2h0PSI0MHB4IiB3aWR0aD0iNDBweCI+JiN4YTsgICAgPHRpdGxlPkljb24tQXJjaGl0ZWN0dXJlLUdyb3VwLzMyL1ZpcnR1YWwtcHJpdmF0ZS1jbG91ZC1WUENfMzI8L3RpdGxlPiYjeGE7ICAgIDxnIGZpbGwtcnVsZT0iZXZlbm9kZCIgZmlsbD0ibm9uZSIgc3Ryb2tlLXdpZHRoPSIxIiBzdHJva2U9Im5vbmUiIGlkPSJJY29uLUFyY2hpdGVjdHVyZS1Hcm91cC8zMi9WaXJ0dWFsLXByaXZhdGUtY2xvdWQtVlBDXzMyIj4mI3hhOyAgICAgICAgPHJlY3QgaGVpZ2h0PSI0MCIgd2lkdGg9IjQwIiB5PSIwIiB4PSIwIiBmaWxsPSIjOEM0RkZGIiBpZD0iUmVjdGFuZ2xlIi8+JiN4YTsgICAgICAgIDxwYXRoIGZpbGw9IiNGRkZGRkYiIGlkPSJGaWxsLTEiIGQ9Ik0zMC45NzA3LDIxLjAyOTM1OTYgTDI4LjAyNjcsMTkuNzY2MzU5NiBMMjguMDI2NywzMC4yNTUzNTk2IEMzMC41NzE3LDI5LjkwMzM1OTYgMzAuOTU4NywyNy4yODczNTk2IDMwLjk3NDcsMjcuMTY4MzU5NiBMMzAuOTcwNywyMS4wMjkzNTk2IFogTTI3LjAyNjcsMzAuMjY5MzU5NiBMMjcuMDI2NywxOS43NTkzNTk2IEwyMy45OTE3LDIxLjAzMjM1OTYgTDIzLjk5MTcsMjcuMjMzMzU5NiBDMjQuMDA0NywyNy4yODczNTk2IDI0LjQzNjcsMzAuMDAwMzU5NiAyNy4wMjY3LDMwLjI2OTM1OTYgTDI3LjAyNjcsMzAuMjY5MzU5NiBaIE0yNy4zMzI3LDE4LjU0NzM1OTYgQzI3LjQ1NjcsMTguNDk0MzU5NiAyNy41OTg3LDE4LjQ5NTM1OTYgMjcuNzIzNywxOC41NDgzNTk2IEwzMS42Njc3LDIwLjI0MDM1OTYgQzMxLjg1MTcsMjAuMzE5MzU5NiAzMS45NzA3LDIwLjQ5OTM1OTYgMzEuOTcwNywyMC42OTkzNTk2IEwzMS45NzA3LDI3LjIzMzM1OTYgQzMxLjc4NzcsMjguNjgwMzU5NiAzMC42MTM3LDMxLjI5NjM1OTYgMjcuNDQzNywzMS4yOTYzNTk2IEMyNC4zNjg3LDMxLjI5NjM1OTYgMjMuMTg5NywyOC42ODQzNTk2IDIyLjk5NTcsMjcuMzAyMzU5NiBMMjIuOTkxNywyMC42OTkzNTk2IEMyMi45OTE3LDIwLjQ5ODM1OTYgMjMuMTEyNywyMC4zMTYzNTk2IDIzLjI5NzcsMjAuMjM4MzU5NiBMMjcuMzMyNywxOC41NDczNTk2IFogTTMyLjk4MjcwMjIsMTkuMTg0MzU5NiBMMjcuNTIxNywxNi43NzgzNTk2IEwyMS45OTE3LDE5LjEwNTM1OTYgTDIxLjk5MTcsMjYuMjMzMzU5NiBDMjEuOTkwNywyNi4yNzUzNTk2IDIxLjkzNzcsMjkuMTAxMzU5NiAyMy42NDg3LDMwLjg1NjM1OTYgQzI0LjU2NTcsMzEuNzk3MzU5NiAyNS44NDI3LDMyLjI3NTM1OTYgMjcuNDQzNywzMi4yNzUzNTk2IEMyOS4wNDU3LDMyLjI3NTM1OTYgMzAuMzMwNywzMS43OTYzNTk2IDMxLjI2MjcsMzAuODUzMzU5NiBDMzIuOTk3NywyOS4wOTUzNTk2IDMyLjk4MjcwMjIsMjYuMjY4MzU5NiAzMi45ODI3MDIyLDI2LjI0MDM1OTYgTDMyLjk4MjcwMjIsMTkuMTg0MzU5NiBaIE0zMS45Nzk3LDMxLjU1MDM1OTYgQzMwLjg1MjcsMzIuNjk0MzU5NiAyOS4zMjU3LDMzLjI3NTM1OTYgMjcuNDQzNywzMy4yNzUzNTk2IEMyNS41NTk3LDMzLjI3NTM1OTYgMjQuMDM5NywzMi42OTQzNTk2IDIyLjkyNjcsMzEuNTQ4MzU5NiBDMjAuOTIxNywyOS40ODUzNTk2IDIwLjk4NzcsMjYuMzUxMzU5NiAyMC45OTE3LDI2LjIxOTM1OTYgTDIwLjk5MTcsMTguNzczMzU5NiBDMjAuOTkxNywxOC41NzIzNTk2IDIxLjExMTcsMTguMzkwMzU5NiAyMS4yOTY3LDE4LjMxMjM1OTYgTDI3LjMzMTcsMTUuNzcyMzU5NiBDMjcuNDU4NywxNS43MjAzNTk2IDI3LjYwMjcsMTUuNzE5MzU5NiAyNy43Mjc3LDE1Ljc3NjM1OTYgTDMzLjY4MzcsMTguNDAxMzU5NiBDMzMuODY1NywxOC40ODEzNTk2IDMzLjk4MjcsMTguNjYwMzU5NiAzMy45ODI3LDE4Ljg1ODM1OTYgTDMzLjk4MjcsMjYuMjMzMzU5NiBDMzMuOTg0NywyNi4zNTgzNTk2IDM0LjAwOTcsMjkuNDg4MzU5NiAzMS45Nzk3LDMxLjU1MDM1OTYgTDMxLjk3OTcsMzEuNTUwMzU5NiBaIE0xMC45OTE3LDI0LjIzNjM1OTYgTDE4Ljk5MTcsMjQuMjM2MzU5NiBMMTguOTkxNywyNS4yMzYzNTk2IEwxMC45OTE3LDI1LjIzNjM1OTYgQzguMTgwNywyNS4yMzYzNTk2IDYuMTgwNywyMy4yMjAzNTk2IDYuMDEyNywyMC4yMjAzNTk2IEM2LjAwMDcsMjAuMTA5MzU5NiA1Ljk5OTcsMTkuOTc1MzU5NiA1Ljk5OTcsMTkuODQxMzU5NiBDNS45OTk3LDE3LjMzMjM1OTYgNy4zMTc3LDE1LjYxODM1OTYgOS44MTY3LDE0Ljg2MjM1OTYgQzkuNzk3NywxNC42MzUzNTk2IDkuNzg0NywxNC4zOTYzNTk2IDkuNzg0NywxNC4yMTUzNTk2IEM5Ljc4NDcsMTEuMjk5MzU5NiAxMS4zNjE3LDguNzcwMzU5NTggMTMuODAxNyw3Ljc3MDM1OTU4IEMxNy4wOTk3LDYuNDIyMzU5NTggMjAuODQzNyw2Ljg3NjM1OTU4IDIyLjkwNzcsOC44NzQzNTk1OCBDMjMuNjUyNyw5LjU5ODM1OTU4IDI0LjIzMTcsMTAuNDE2MzU5NiAyNC42Njc3LDExLjM1OTM1OTYgQzI1LjI3NjcsMTAuOTA5MzU5NiAyNi4wNjc3LDEwLjY5ODM1OTYgMjcuMDE2NywxMC43NDUzNTk2IEMyOC43OTY3LDEwLjgzNTM1OTYgMzAuMTY1NywxMi40NTgzNTk2IDMwLjQ0OTcsMTQuNzUyMzU5NiBDMzEuOTQ3NywxNC44NzYzNTk2IDMyLjkzNDcsMTUuNjM1MzU5NiAzMy40NTk3LDE3LjA2MDM1OTYgTDMyLjUyMjcsMTcuNDA2MzU5NiBDMzIuMDk0NywxNi4yNDkzNTk2IDMxLjMxNDcsMTUuNzMzMzU5NiAyOS45OTE3LDE1LjczMzM1OTYgQzI5LjcyNjcsMTUuNzMzMzU5NiAyOS41MDc3LDE1LjUyNzM1OTYgMjkuNDkxNywxNS4yNjMzNTk2IEMyOS4zNTM3LDEyLjkyNTM1OTYgMjguMDg1NywxMS44MDAzNTk2IDI2Ljk2NTcsMTEuNzQ0MzU5NiBDMjYuMDIwNywxMS42OTEzNTk2IDI1LjMyMDcsMTEuOTYzMzU5NiAyNC44ODY3LDEyLjUzNTM1OTYgQzI0Ljc3NTcsMTIuNjgwMzU5NiAyNC42MDE3LDEyLjc1MjM1OTYgMjQuNDEzNywxMi43MjgzNTk2IEMyNC4yMzM3LDEyLjcwMDM1OTYgMjQuMDgxNywxMi41NzczNTk2IDI0LjAxODcsMTIuNDA1MzU5NiBDMjMuNjE0NywxMS4zMDIzNTk2IDIzLjAyMzcsMTAuMzgyMzU5NiAyMi4yMTE3LDkuNTkxMzU5NTggQzIwLjQyMzcsNy44NjEzNTk1OCAxNy4xMjE3LDcuNDkyMzU5NTggMTQuMTgwNyw4LjY5NjM1OTU4IEMxMi4xMTc3LDkuNTQxMzU5NTggMTAuNzg0NywxMS43MDczNTk2IDEwLjc4NDcsMTQuMjE1MzU5NiBDMTAuNzg0NywxNC40ODgzNTk2IDEwLjgxOTcsMTQuOTExMzU5NiAxMC44NTA3LDE1LjE3NDM1OTYgQzEwLjg4MDcsMTUuNDI1MzU5NiAxMC43MTk3LDE1LjY1ODM1OTYgMTAuNDc0NywxNS43MTgzNTk2IEM4LjE2ODcsMTYuMjkwMzU5NiA2Ljk5OTcsMTcuNjc3MzU5NiA2Ljk5OTcsMTkuODQxMzU5NiBDNi45OTk3LDE5Ljk0MjM1OTYgNi45OTg3LDIwLjA0MjM1OTYgNy4wMDg3LDIwLjE0MzM1OTYgQzcuMTQ5NywyMi42MzgzNTk2IDguNzExNywyNC4yMzYzNTk2IDEwLjk5MTcsMjQuMjM2MzU5NiBMMTAuOTkxNywyNC4yMzYzNTk2IFoiLz4mI3hhOyAgICA8L2c+JiN4YTs8L3N2Zz4=;allowArrows=0;connectable=0;moveable=0;resizable=0;" vertex="1" parent="b9iFle_TsSmMyPbpANP3-1">
          <mxGeometry width="30" height="30" as="geometry" />
        </mxCell>
        <mxCell id="b9iFle_TsSmMyPbpANP3-5" value="" style="group" vertex="1" connectable="0" parent="b9iFle_TsSmMyPbpANP3-1">
          <mxGeometry x="30" y="40.64516129032258" width="200" height="193.06451612903226" as="geometry" />
        </mxCell>
        <mxCell id="b9iFle_TsSmMyPbpANP3-6" value="Public subnet" style="whiteSpace=wrap;html=1;strokeColor=none;fillColor=#F2F6E8;container=0;verticalAlign=top;align=left;spacingLeft=35;spacingTop=3;fontColor=#7AA116;" vertex="1" parent="b9iFle_TsSmMyPbpANP3-5">
          <mxGeometry width="200" height="193.06451612903226" as="geometry" />
        </mxCell>
        <mxCell id="b9iFle_TsSmMyPbpANP3-7" value="" style="shape=image;verticalLabelPosition=bottom;labelBackgroundColor=default;verticalAlign=top;aspect=fixed;imageAspect=0;image=data:image/svg+xml,PHN2ZyB4bWxuczp4bGluaz0iaHR0cDovL3d3dy53My5vcmcvMTk5OS94bGluayIgeG1sbnM9Imh0dHA6Ly93d3cudzMub3JnLzIwMDAvc3ZnIiB2ZXJzaW9uPSIxLjEiIHZpZXdCb3g9IjAgMCA0MCA0MCIgaGVpZ2h0PSI0MHB4IiB3aWR0aD0iNDBweCI+JiN4YTsgICAgPHRpdGxlPkljb24tQXJjaGl0ZWN0dXJlLUdyb3VwLzMyL1B1YmxpYy1zdWJuZXRfMzI8L3RpdGxlPiYjeGE7ICAgIDxnIGZpbGwtcnVsZT0iZXZlbm9kZCIgZmlsbD0ibm9uZSIgc3Ryb2tlLXdpZHRoPSIxIiBzdHJva2U9Im5vbmUiIGlkPSJJY29uLUFyY2hpdGVjdHVyZS1Hcm91cC8zMi9QdWJsaWMtc3VibmV0XzMyIj4mI3hhOyAgICAgICAgPHJlY3QgaGVpZ2h0PSI0MCIgd2lkdGg9IjQwIiB5PSIwIiB4PSIwIiBmaWxsPSIjN0FBMTE2IiBpZD0iUmVjdGFuZ2xlIi8+JiN4YTsgICAgICAgIDxwYXRoIGZpbGw9IiNGRkZGRkYiIGlkPSJGaWxsLTEiIGQ9Ik0xOS41MzYsMjIuMDQ5IEMyMC42NDIsMjIuMDQ5IDIxLjU0MiwyMi45NDggMjEuNTQyLDI0LjA1NCBDMjEuNTQyLDI1LjE2IDIwLjY0MiwyNi4wNiAxOS41MzYsMjYuMDYgQzE4LjQzLDI2LjA2IDE3LjUzLDI1LjE2IDE3LjUzLDI0LjA1NCBDMTcuNTMsMjIuOTQ4IDE4LjQzLDIyLjA0OSAxOS41MzYsMjIuMDQ5IEwxOS41MzYsMjIuMDQ5IFogTTE5LjAxMiwyNy4wMDcgTDE5LjAxMiwzMC41MDEgTDIwLjAxMiwzMC41MDEgTDIwLjAxMiwyNy4wMTIgQzIxLjQ0MiwyNi43ODIgMjIuNTQyLDI1LjU0OSAyMi41NDIsMjQuMDU0IEMyMi41NDIsMjIuMzk3IDIxLjE5MywyMS4wNDkgMTkuNTM2LDIxLjA0OSBDMTcuODc5LDIxLjA0OSAxNi41MywyMi4zOTcgMTYuNTMsMjQuMDU0IEMxNi41MywyNS41MzIgMTcuNjA0LDI2Ljc1NyAxOS4wMTIsMjcuMDA3IEwxOS4wMTIsMjcuMDA3IFogTTEwLDMzLjAxNCBMMjkuMDEyLDMzLjAxNCBMMjkuMDEyLDE4IEwxMCwxOCBMMTAsMzMuMDE0IFogTTE0LjA0NiwxMi40ODQgQzE0LjA0Niw5LjQ2IDE2LjUwNiw3IDE5LjUyOSw3IEMyMi41NTMsNyAyNS4wMTIsOS40NiAyNS4wMTIsMTIuNDg0IEwyNS4wMTIsMTcgTDE0LjA0NiwxNyBMMTQuMDQ2LDEyLjQ4NCBaIE0yOS41MTIsMTcgTDI2LjAxMiwxNyBMMjYuMDEyLDEyLjQ4NCBDMjYuMDEyLDguOTA4IDIzLjEwMyw2IDE5LjUyOSw2IEMxNS45NTQsNiAxMy4wNDYsOC45MDggMTMuMDQ2LDEyLjQ4NCBMMTMuMDQ2LDE3IEw5LjUsMTcgQzkuMjIzLDE3IDksMTcuMjI0IDksMTcuNSBMOSwzMy41MTQgQzksMzMuNzkgOS4yMjMsMzQuMDE0IDkuNSwzNC4wMTQgTDI5LjUxMiwzNC4wMTQgQzI5Ljc4OCwzNC4wMTQgMzAuMDEyLDMzLjc5IDMwLjAxMiwzMy41MTQgTDMwLjAxMiwxNy41IEMzMC4wMTIsMTcuMjI0IDI5Ljc4OCwxNyAyOS41MTIsMTcgTDI5LjUxMiwxNyBaIi8+JiN4YTsgICAgPC9nPiYjeGE7PC9zdmc+;allowArrows=0;connectable=0;moveable=0;resizable=0;" vertex="1" parent="b9iFle_TsSmMyPbpANP3-5">
          <mxGeometry width="30" height="30" as="geometry" />
        </mxCell>
        <mxCell id="b9iFle_TsSmMyPbpANP3-8" style="shape=image;verticalLabelPosition=bottom;verticalAlign=top;imageAspect=0;aspect=fixed;image=data:image/svg+xml,PD94bWwgdmVyc2lvbj0iMS4wIiBlbmNvZGluZz0iVVRGLTgiPz4KPHN2ZyB3aWR0aD0iNjRweCIgaGVpZ2h0PSI2NHB4IiB2aWV3Qm94PSIwIDAgNjQgNjQiIHZlcnNpb249IjEuMSIgeG1sbnM9Imh0dHA6Ly93d3cudzMub3JnLzIwMDAvc3ZnIiB4bWxuczp4bGluaz0iaHR0cDovL3d3dy53My5vcmcvMTk5OS94bGluayI+CiAgICA8dGl0bGU+SWNvbi1BcmNoaXRlY3R1cmUvNDgvQXJjaF9FbGFzdGljLUxvYWQtQmFsYW5jaW5nXzQ4PC90aXRsZT4KICAgIDxnIGlkPSJJY29uLUFyY2hpdGVjdHVyZS80OC9BcmNoX0VsYXN0aWMtTG9hZC1CYWxhbmNpbmdfNDgiIHN0cm9rZT0ibm9uZSIgc3Ryb2tlLXdpZHRoPSIxIiBmaWxsPSJub25lIiBmaWxsLXJ1bGU9ImV2ZW5vZGQiPgogICAgICAgIDxnIGlkPSJJY29uLUFyY2hpdGVjdHVyZS1CRy80OC9OZXR3b3JraW5nLUNvbnRlbnQtRGVsaXZlcnkiIGZpbGw9IiM4QzRGRkYiPgogICAgICAgICAgICA8cmVjdCBpZD0iUmVjdGFuZ2xlIiB4PSIwIiB5PSIwIiB3aWR0aD0iNjQiIGhlaWdodD0iNjQiPjwvcmVjdD4KICAgICAgICA8L2c+CiAgICAgICAgPHBhdGggZD0iTTIzLjUsNDIgQzE3LjcxLDQyIDEzLDM3LjI5IDEzLDMxLjUgQzEzLDI1LjcxIDE3LjcxLDIxIDIzLjUsMjEgQzI5LjI5LDIxIDM0LDI1LjcxIDM0LDMxLjUgQzM0LDM3LjI5IDI5LjI5LDQyIDIzLjUsNDIgTTQ4LDQ4IEM0OCw0OS42NTQgNDYuNjU0LDUxIDQ1LDUxIEM0My4zNDYsNTEgNDIsNDkuNjU0IDQyLDQ4IEM0Miw0Ni4zNDYgNDMuMzQ2LDQ1IDQ1LDQ1IEM0Ni42NTQsNDUgNDgsNDYuMzQ2IDQ4LDQ4IE00NSwxMyBDNDYuNjU0LDEzIDQ4LDE0LjM0NiA0OCwxNiBDNDgsMTcuNjU0IDQ2LjY1NCwxOSA0NSwxOSBDNDMuMzQ2LDE5IDQyLDE3LjY1NCA0MiwxNiBDNDIsMTQuMzQ2IDQzLjM0NiwxMyA0NSwxMyBNNDgsMjkgQzQ5LjY1NCwyOSA1MSwzMC4zNDYgNTEsMzIgQzUxLDMzLjY1NCA0OS42NTQsMzUgNDgsMzUgQzQ2LjM0NiwzNSA0NSwzMy42NTQgNDUsMzIgQzQ1LDMwLjM0NiA0Ni4zNDYsMjkgNDgsMjkgTTM1LjkwMSwzMyBMNDMuMTAyLDMzIEM0My41NjUsMzUuMjc5IDQ1LjU4NiwzNyA0OCwzNyBDNTAuNzU3LDM3IDUzLDM0Ljc1NyA1MywzMiBDNTMsMjkuMjQzIDUwLjc1NywyNyA0OCwyNyBDNDUuNTg2LDI3IDQzLjU2NSwyOC43MjEgNDMuMTAyLDMxIEwzNS45NzUsMzEgQzM1LjkxNiwyOS41NDEgMzUuNjE0LDI4LjE0NiAzNS4wOTYsMjYuODU2IEw0Mi43OTksMjAuNDY3IEM0My40NjYsMjAuNzk3IDQ0LjIwNiwyMSA0NSwyMSBDNDcuNzU3LDIxIDUwLDE4Ljc1NyA1MCwxNiBDNTAsMTMuMjQzIDQ3Ljc1NywxMSA0NSwxMSBDNDIuMjQzLDExIDQwLDEzLjI0MyA0MCwxNiBDNDAsMTcuMjI0IDQwLjQ1OSwxOC4zMzEgNDEuMTkxLDE5LjIwMSBMMzQuMTcyLDI1LjAyNCBDMzEuOTc3LDIxLjQyIDI4LjAyMSwxOSAyMy41LDE5IEMxNi42MDcsMTkgMTEsMjQuNjA3IDExLDMxLjUgQzExLDM4LjM5MyAxNi42MDcsNDQgMjMuNSw0NCBDMjcuNzQzLDQ0IDMxLjQ5Myw0MS44NzEgMzMuNzU0LDM4LjYyOSBMNDEuMTkxLDQ0Ljc5OSBDNDAuNDU5LDQ1LjY2OSA0MCw0Ni43NzYgNDAsNDggQzQwLDUwLjc1NyA0Mi4yNDMsNTMgNDUsNTMgQzQ3Ljc1Nyw1MyA1MCw1MC43NTcgNTAsNDggQzUwLDQ1LjI0MyA0Ny43NTcsNDMgNDUsNDMgQzQ0LjIwNiw0MyA0My40NjYsNDMuMjAzIDQyLjc5OSw0My41MzMgTDM0Ljc3LDM2Ljg3MyBDMzUuMzQ0LDM1LjY3MyAzNS43MzYsMzQuMzczIDM1LjkwMSwzMyIgaWQ9IkVsYXN0aWMtTG9hZC1CYWxhbmNpbmdfSWNvbl80OF9TcXVpZCIgZmlsbD0iI0ZGRkZGRiI+PC9wYXRoPgogICAgPC9nPgo8L3N2Zz4=;points=[[0,0],[1,0],[1,1],[0,1],[0,0.167],[0.167,0],[1,0.167],[0.167,1],[0,0.333],[0.333,0],[1,0.333],[0.333,1],[0,0.5],[0.5,0],[1,0.5],[0.5,1],[0,0.667],[0.667,0],[1,0.667],[0.667,1],[0,0.833],[0.833,0],[1,0.833],[0.833,1]]" vertex="1" parent="b9iFle_TsSmMyPbpANP3-5">
          <mxGeometry x="50" y="60.96774193548387" width="80" height="80" as="geometry" />
        </mxCell>
        <mxCell id="b9iFle_TsSmMyPbpANP3-9" value="" style="group" vertex="1" connectable="0" parent="b9iFle_TsSmMyPbpANP3-1">
          <mxGeometry x="240" y="40.64516129032258" width="360" height="193.06451612903226" as="geometry" />
        </mxCell>
        <mxCell id="b9iFle_TsSmMyPbpANP3-10" value="Private subnet" style="whiteSpace=wrap;html=1;strokeColor=none;fillColor=#E6F6F7;container=0;verticalAlign=top;align=left;spacingLeft=35;spacingTop=3;fontColor=#00A4A6;" vertex="1" parent="b9iFle_TsSmMyPbpANP3-9">
          <mxGeometry width="360" height="193.06451612903226" as="geometry" />
        </mxCell>
        <mxCell id="b9iFle_TsSmMyPbpANP3-11" value="" style="shape=image;verticalLabelPosition=bottom;labelBackgroundColor=default;verticalAlign=top;aspect=fixed;imageAspect=0;image=data:image/svg+xml,PHN2ZyB4bWxuczp4bGluaz0iaHR0cDovL3d3dy53My5vcmcvMTk5OS94bGluayIgeG1sbnM9Imh0dHA6Ly93d3cudzMub3JnLzIwMDAvc3ZnIiB2ZXJzaW9uPSIxLjEiIHZpZXdCb3g9IjAgMCA0MCA0MCIgaGVpZ2h0PSI0MHB4IiB3aWR0aD0iNDBweCI+JiN4YTsgICAgPHRpdGxlPkljb24tQXJjaGl0ZWN0dXJlLUdyb3VwLzMyL1ByaXZhdGUtc3VibmV0XzMyPC90aXRsZT4mI3hhOyAgICA8ZyBmaWxsLXJ1bGU9ImV2ZW5vZGQiIGZpbGw9Im5vbmUiIHN0cm9rZS13aWR0aD0iMSIgc3Ryb2tlPSJub25lIiBpZD0iSWNvbi1BcmNoaXRlY3R1cmUtR3JvdXAvMzIvUHJpdmF0ZS1zdWJuZXRfMzIiPiYjeGE7ICAgICAgICA8cmVjdCBoZWlnaHQ9IjQwIiB3aWR0aD0iNDAiIHk9IjAiIHg9IjAiIGZpbGw9IiMwMEE0QTYiIGlkPSJSZWN0YW5nbGUiLz4mI3hhOyAgICAgICAgPHBhdGggZmlsbD0iI0ZGRkZGRiIgaWQ9IkZpbGwtMSIgZD0iTTE5LjUzNiwyMi4wNDkgQzIwLjY0MiwyMi4wNDkgMjEuNTQyLDIyLjk0OCAyMS41NDIsMjQuMDU0IEMyMS41NDIsMjUuMTYgMjAuNjQyLDI2LjA2IDE5LjUzNiwyNi4wNiBDMTguNDMsMjYuMDYgMTcuNTMsMjUuMTYgMTcuNTMsMjQuMDU0IEMxNy41MywyMi45NDggMTguNDMsMjIuMDQ5IDE5LjUzNiwyMi4wNDkgTDE5LjUzNiwyMi4wNDkgWiBNMTkuMDEyLDI3LjAwNyBMMTkuMDEyLDMwLjUwMSBMMjAuMDEyLDMwLjUwMSBMMjAuMDEyLDI3LjAxMiBDMjEuNDQyLDI2Ljc4MiAyMi41NDIsMjUuNTQ5IDIyLjU0MiwyNC4wNTQgQzIyLjU0MiwyMi4zOTcgMjEuMTkzLDIxLjA0OSAxOS41MzYsMjEuMDQ5IEMxNy44NzksMjEuMDQ5IDE2LjUzLDIyLjM5NyAxNi41MywyNC4wNTQgQzE2LjUzLDI1LjUzMiAxNy42MDQsMjYuNzU3IDE5LjAxMiwyNy4wMDcgTDE5LjAxMiwyNy4wMDcgWiBNMTAsMzMuMDE0IEwyOS4wMTIsMzMuMDE0IEwyOS4wMTIsMTggTDEwLDE4IEwxMCwzMy4wMTQgWiBNMTQuMDQ2LDEyLjQ4NCBDMTQuMDQ2LDkuNDYgMTYuNTA2LDcgMTkuNTI5LDcgQzIyLjU1Myw3IDI1LjAxMiw5LjQ2IDI1LjAxMiwxMi40ODQgTDI1LjAxMiwxNyBMMTQuMDQ2LDE3IEwxNC4wNDYsMTIuNDg0IFogTTI5LjUxMiwxNyBMMjYuMDEyLDE3IEwyNi4wMTIsMTIuNDg0IEMyNi4wMTIsOC45MDggMjMuMTAzLDYgMTkuNTI5LDYgQzE1Ljk1NCw2IDEzLjA0Niw4LjkwOCAxMy4wNDYsMTIuNDg0IEwxMy4wNDYsMTcgTDkuNSwxNyBDOS4yMjMsMTcgOSwxNy4yMjQgOSwxNy41IEw5LDMzLjUxNCBDOSwzMy43OSA5LjIyMywzNC4wMTQgOS41LDM0LjAxNCBMMjkuNTEyLDM0LjAxNCBDMjkuNzg4LDM0LjAxNCAzMC4wMTIsMzMuNzkgMzAuMDEyLDMzLjUxNCBMMzAuMDEyLDE3LjUgQzMwLjAxMiwxNy4yMjQgMjkuNzg4LDE3IDI5LjUxMiwxNyBMMjkuNTEyLDE3IFoiLz4mI3hhOyAgICA8L2c+JiN4YTs8L3N2Zz4=;allowArrows=0;connectable=0;moveable=0;resizable=0;" vertex="1" parent="b9iFle_TsSmMyPbpANP3-9">
          <mxGeometry width="30" height="30" as="geometry" />
        </mxCell>
        <mxCell id="b9iFle_TsSmMyPbpANP3-13" value="" style="group" vertex="1" connectable="0" parent="b9iFle_TsSmMyPbpANP3-9">
          <mxGeometry x="38.91891891891892" y="30.483870967741936" width="291.89189189189193" height="162.5806451612903" as="geometry" />
        </mxCell>
        <mxCell id="b9iFle_TsSmMyPbpANP3-14" value="&amp;nbsp;&amp;nbsp;&amp;nbsp;&amp;nbsp; ECS Cluster" style="whiteSpace=wrap;html=1;strokeColor=#ED7100;fillColor=none;container=0;verticalAlign=top;align=left;spacingLeft=35;spacingTop=3;fontColor=#ED7100;dashed=1;" vertex="1" parent="b9iFle_TsSmMyPbpANP3-13">
          <mxGeometry width="291.89189189189193" height="142.25806451612902" as="geometry" />
        </mxCell>
        <mxCell id="b9iFle_TsSmMyPbpANP3-15" value="" style="shape=image;verticalLabelPosition=bottom;labelBackgroundColor=default;verticalAlign=top;aspect=fixed;imageAspect=0;image=data:image/svg+xml,PHN2ZyB4bWxuczp4bGluaz0iaHR0cDovL3d3dy53My5vcmcvMTk5OS94bGluayIgeG1sbnM9Imh0dHA6Ly93d3cudzMub3JnLzIwMDAvc3ZnIiB2ZXJzaW9uPSIxLjEiIHZpZXdCb3g9IjAgMCA0MCA0MCIgaGVpZ2h0PSI0MHB4IiB3aWR0aD0iNDBweCI+JiN4YTsgICAgPHRpdGxlPkljb24tQXJjaGl0ZWN0dXJlLUdyb3VwLzMyL0F1dG8tU2NhbGluZy1ncm91cF8zMjwvdGl0bGU+JiN4YTsgICAgPGcgZmlsbC1ydWxlPSJldmVub2RkIiBmaWxsPSJub25lIiBzdHJva2Utd2lkdGg9IjEiIHN0cm9rZT0ibm9uZSIgaWQ9Ikljb24tQXJjaGl0ZWN0dXJlLUdyb3VwLzMyL0F1dG8tU2NhbGluZy1ncm91cF8zMiI+JiN4YTsgICAgICAgIDxyZWN0IGhlaWdodD0iNDAiIHdpZHRoPSI0MCIgeT0iMCIgeD0iMCIgZmlsbD0iI0VENzEwMCIgaWQ9IlJlY3RhbmdsZSIvPiYjeGE7ICAgICAgICA8cGF0aCBmaWxsPSIjRkZGRkZGIiBpZD0iRmlsbC0xIiBkPSJNMTguMDIxLDE5LjQ5NTI1MzggQzE4LjAyMSwxOS4zNDAyNTM4IDE3Ljk1LDE5LjE5ODI1MzggMTcuODMzLDE5LjEwNDI1MzggTDE0Ljg3OSwxNi4xNTEyNTM4IEwxNC4xNzIsMTYuODU4MjUzOCBMMTYuMzEsMTguOTk1MjUzOCBMNywxOC45OTUyNTM4IEw3LDE5Ljk5NTI1MzggTDE2LjMxNCwxOS45OTUyNTM4IEwxNC4xNzIsMjIuMTM3MjUzOCBMMTQuODc5LDIyLjg0NDI1MzggTDE3Ljg0OCwxOS44NzUyNTM4IEMxNy45NTYsMTkuNzgxMjUzOCAxOC4wMjEsMTkuNjQzMjUzOCAxOC4wMjEsMTkuNDk1MjUzOCBMMTguMDIxLDE5LjQ5NTI1MzggWiBNMzMuOTg2LDE4Ljk5NTI1MzggTDI0LjY3NSwxOC45OTUyNTM4IEwyNi44MTMsMTYuODU4MjUzOCBMMjYuMTA2LDE2LjE1MTI1MzggTDIzLjEzNywxOS4xMjAyNTM4IEMyMy4wMywxOS4yMTMyNTM4IDIyLjk2NCwxOS4zNTEyNTM4IDIyLjk2NCwxOS40OTkyNTM4IEMyMi45NjQsMTkuNjU0MjUzOCAyMy4wMzYsMTkuNzk3MjUzOCAyMy4xNTMsMTkuODkwMjUzOCBMMjYuMTA2LDIyLjg0NDI1MzggTDI2LjgxMywyMi4xMzcyNTM4IEwyNC42NzEsMTkuOTk1MjUzOCBMMzMuOTg2LDE5Ljk5NTI1MzggTDMzLjk4NiwxOC45OTUyNTM4IFogTTIwLjk5NiwzMS4zMjQyNTM4IEwyMC45OTYsMjIuMDEwMjUzOCBMMTkuOTk2LDIyLjAxMDI1MzggTDE5Ljk5NiwzMS4zMjAyNTM4IEwxNy44NTgsMjkuMTgzMjUzOCBMMTcuMTUxLDI5Ljg5MDI1MzggTDIwLjEyLDMyLjg1NzI1MzggQzIwLjIxMywzMi45NjYyNTM4IDIwLjM1MiwzMy4wMzIyNTM4IDIwLjUsMzMuMDMyMjUzOCBDMjAuNjU2LDMzLjAzMjI1MzggMjAuOCwzMi45NTkyNTM4IDIwLjg5MywzMi44NDEyNTM4IEwyMy44NDQsMjkuODkwMjUzOCBMMjMuMTM3LDI5LjE4MzI1MzggTDIwLjk5NiwzMS4zMjQyNTM4IFogTTE3Ljg1OCw5LjgzNzI1Mzc2IEwxNy4xNTEsOS4xMzAyNTM3NiBMMjAuMTAzLDYuMTc5MjUzNzYgQzIwLjI4NSw1Ljk0NzI1Mzc2IDIwLjY4Myw1LjkzOTI1Mzc2IDIwLjg3Nyw2LjE2MjI1Mzc2IEwyMy44NDQsOS4xMzAyNTM3NiBMMjMuMTM3LDkuODM3MjUzNzYgTDIwLjk5Niw3LjY5NjI1Mzc2IEwyMC45OTYsMTcuMDEwMjUzOCBMMTkuOTk2LDE3LjAxMDI1MzggTDE5Ljk5Niw3LjcwMDI1Mzc2IEwxNy44NTgsOS44MzcyNTM3NiBaIi8+JiN4YTsgICAgPC9nPiYjeGE7PC9zdmc+;allowArrows=0;connectable=0;moveable=0;resizable=0;" vertex="1" parent="b9iFle_TsSmMyPbpANP3-13">
          <mxGeometry width="30" height="30" as="geometry" />
        </mxCell>
        <mxCell id="b9iFle_TsSmMyPbpANP3-16" style="shape=image;verticalLabelPosition=bottom;verticalAlign=top;imageAspect=0;aspect=fixed;image=data:image/svg+xml,PD94bWwgdmVyc2lvbj0iMS4wIiBlbmNvZGluZz0iVVRGLTgiPz4KPHN2ZyB3aWR0aD0iNjRweCIgaGVpZ2h0PSI2NHB4IiB2aWV3Qm94PSIwIDAgNjQgNjQiIHZlcnNpb249IjEuMSIgeG1sbnM9Imh0dHA6Ly93d3cudzMub3JnLzIwMDAvc3ZnIiB4bWxuczp4bGluaz0iaHR0cDovL3d3dy53My5vcmcvMTk5OS94bGluayI+CiAgICA8dGl0bGU+SWNvbi1BcmNoaXRlY3R1cmUvNDgvQXJjaF9BbWF6b24tRWxhc3RpYy1Db250YWluZXItU2VydmljZV80ODwvdGl0bGU+CiAgICA8ZyBpZD0iSWNvbi1BcmNoaXRlY3R1cmUvNDgvQXJjaF9BbWF6b24tRWxhc3RpYy1Db250YWluZXItU2VydmljZV80OCIgc3Ryb2tlPSJub25lIiBzdHJva2Utd2lkdGg9IjEiIGZpbGw9Im5vbmUiIGZpbGwtcnVsZT0iZXZlbm9kZCI+CiAgICAgICAgPGcgaWQ9Ikljb24tQXJjaGl0ZWN0dXJlLUJHLzQ4L0NvbXB1dGUiIGZpbGw9IiNFRDcxMDAiPgogICAgICAgICAgICA8cmVjdCBpZD0iUmVjdGFuZ2xlIiB4PSIwIiB5PSIwIiB3aWR0aD0iNjQiIGhlaWdodD0iNjQiPjwvcmVjdD4KICAgICAgICA8L2c+CiAgICAgICAgPHBhdGggZD0iTTUwLDM2LjM4MjI0NjYgTDQ0LDMzLjM4MjI4ODUgTDQ0LDI1LjAwMDQwNTggQzQ0LDI0LjYzNzQxMDkgNDMuODAzLDI0LjMwMjQxNTYgNDMuNDg1LDI0LjEyNjQxODEgTDM1LDE5LjQxMjQ4NCBMMzUsMTIuNzQ5NTc3MyBMNTAsMjEuNTcyNDUzOCBMNTAsMzYuMzgyMjQ2NiBaIE01MS41MDcsMjAuMTM4NDczOSBMMzQuNTA3LDEwLjEzODYxMzggQzM0LjE5OSw5Ljk1NzYxNjM3IDMzLjgxNSw5Ljk1NDYxNjQxIDMzLjUwNCwxMC4xMzI2MTM5IEMzMy4xOTIsMTAuMzEwNjExNCAzMywxMC42NDE2MDY4IDMzLDExLjAwMDYwMTggTDMzLDIwLjAwMDQ3NTggQzMzLDIwLjM2MzQ3MDcgMzMuMTk3LDIwLjY5ODQ2NjEgMzMuNTE1LDIwLjg3NDQ2MzYgTDQyLDI1LjU4ODM5NzYgTDQyLDM0LjAwMDI3OTkgQzQyLDM0LjM3OTI3NDYgNDIuMjE0LDM0LjcyNTI2OTcgNDIuNTUzLDM0Ljg5NTI2NzQgTDUwLjU1MywzOC44OTUyMTE0IEM1MC42OTQsMzguOTY1MjEwNCA1MC44NDcsMzkuMDAwMjA5OSA1MSwzOS4wMDAyMDk5IEM1MS4xODMsMzkuMDAwMjA5OSA1MS4zNjUsMzguOTUwMjEwNiA1MS41MjUsMzguODUxMjEyIEM1MS44MiwzOC42NjgyMTQ2IDUyLDM4LjM0NzIxOTEgNTIsMzguMDAwMjIzOSBMNTIsMjEuMDAwNDYxOCBDNTIsMjAuNjQ2NDY2OCA1MS44MTIsMjAuMzE4NDcxNCA1MS41MDcsMjAuMTM4NDczOSBMNTEuNTA3LDIwLjEzODQ3MzkgWiBNMzIsNTEuODI4MDMwNCBMMTUsNDEuNDM5MTc1OCBMMTUsMjEuNTU0NDU0MSBMMjksMTIuODA0NTc2NSBMMjksMTkuNDQ2NDgzNiBMMjEuNDcsMjQuMTUyNDE3NyBDMjEuMTc4LDI0LjMzNTQxNTIgMjEsMjQuNjU1NDEwNyAyMSwyNS4wMDA0MDU4IEwyMSwzOC4wMDAyMjM5IEMyMSwzOC4zNTEyMTkgMjEuMTg1LDM4LjY3NzIxNDQgMjEuNDg1LDM4Ljg1NzIxMTkgTDMxLjQ4NSw0NC44NTcxMjggQzMxLjc4OSw0NS4wNDAxMjU0IDMyLjE2Nyw0NS4wNDgxMjUzIDMyLjQ3OSw0NC44NzgxMjc3IEw0Mi45ODgsMzkuMTQ2MjA3OSBMNDguMDM1LDQyLjAyOTE2NzUgTDMyLDUxLjgyODAzMDQgWiBNNTAuNDk2LDQxLjEzMjE4MDEgTDQzLjQ5NiwzNy4xMzIyMzYxIEM0My4xOTQsMzYuOTU5MjM4NSA0Mi44MjUsMzYuOTU2MjM4NSA0Mi41MjEsMzcuMTIyMjM2MiBMMzIuMDIzLDQyLjg0ODE1NjEgTDIzLDM3LjQzNDIzMTggTDIzLDI1LjU1NDM5ODEgTDMwLjUzLDIwLjg0ODQ2NCBDMzAuODIyLDIwLjY2NTQ2NjUgMzEsMjAuMzQ1NDcxIDMxLDIwLjAwMDQ3NTggTDMxLDExLjAwMDYwMTggQzMxLDEwLjYzNjYwNjkgMzAuODAzLDEwLjMwMjYxMTUgMzAuNDg0LDEwLjEyNTYxNCBDMzAuMTY4LDkuOTQ4NjE2NSAyOS43NzgsOS45NTk2MTYzNCAyOS40NywxMC4xNTI2MTM2IEwxMy40NywyMC4xNTI0NzM3IEMxMy4xNzgsMjAuMzM1NDcxMSAxMywyMC42NTU0NjY3IDEzLDIxLjAwMDQ2MTggTDEzLDQyLjAwMDE2NzkgQzEzLDQyLjM0ODE2MzEgMTMuMTgyLDQyLjY3MTE1ODUgMTMuNDc5LDQyLjg1NDE1NiBMMzEuNDc5LDUzLjg1NDAwMiBDMzEuNjM5LDUzLjk1MTAwMDcgMzEuODE5LDU0IDMyLDU0IEMzMi4xODEsNTQgMzIuMzYxLDUzLjk1MTAwMDcgMzIuNTIxLDUzLjg1NDAwMiBMNTAuNTIxLDQyLjg1NDE1NiBDNTAuODIzLDQyLjY2OTE1ODYgNTEuMDA1LDQyLjMzOTE2MzIgNTEuMDAwMTAwNCw0MS45ODUxNjgxIEM1MC45OTUsNDEuNjMyMTczMSA1MC44MDMsNDEuMzA3MTc3NiA1MC40OTYsNDEuMTMyMTgwMSBMNTAuNDk2LDQxLjEzMjE4MDEgWiIgaWQ9IkFtYXpvbi1FbGFzdGljLUNvbnRhaW5lci1TZXJ2aWNlX0ljb25fNDhfU3F1aWQiIGZpbGw9IiNGRkZGRkYiPjwvcGF0aD4KICAgIDwvZz4KPC9zdmc+;points=[[0,0],[1,0],[1,1],[0,1],[0,0.167],[0.167,0],[1,0.167],[0.167,1],[0,0.333],[0.333,0],[1,0.333],[0.333,1],[0,0.5],[0.5,0],[1,0.5],[0.5,1],[0,0.667],[0.667,0],[1,0.667],[0.667,1],[0,0.833],[0.833,0],[1,0.833],[0.833,1]]" vertex="1" parent="b9iFle_TsSmMyPbpANP3-13">
          <mxGeometry width="48.64864864864866" height="48.64864864864866" as="geometry" />
        </mxCell>
        <mxCell id="b9iFle_TsSmMyPbpANP3-17" style="shape=image;verticalLabelPosition=bottom;verticalAlign=top;imageAspect=0;aspect=fixed;image=data:image/svg+xml,PD94bWwgdmVyc2lvbj0iMS4wIiBlbmNvZGluZz0iVVRGLTgiPz4KPHN2ZyB3aWR0aD0iNDhweCIgaGVpZ2h0PSI0OHB4IiB2aWV3Qm94PSIwIDAgNDggNDgiIHZlcnNpb249IjEuMSIgeG1sbnM9Imh0dHA6Ly93d3cudzMub3JnLzIwMDAvc3ZnIiB4bWxuczp4bGluaz0iaHR0cDovL3d3dy53My5vcmcvMTk5OS94bGluayI+CiAgICA8dGl0bGU+SWNvbi1SZXNvdXJjZS9Db250YWluZXJzL1Jlc19BbWF6b24tRWxhc3RpYy1Db250YWluZXItU2VydmljZV9TZXJ2aWNlXzQ4PC90aXRsZT4KICAgIDxnIGlkPSJJY29uLVJlc291cmNlL0NvbnRhaW5lcnMvUmVzX0FtYXpvbi1FbGFzdGljLUNvbnRhaW5lci1TZXJ2aWNlX1NlcnZpY2VfNDgiIHN0cm9rZT0ibm9uZSIgc3Ryb2tlLXdpZHRoPSIxIiBmaWxsPSJub25lIiBmaWxsLXJ1bGU9ImV2ZW5vZGQiPgogICAgICAgIDxwYXRoIGQ9Ik0yNC45MzMsMzguMjEzIEwzNy42NzQsMzguMjEzIEwzNy42NzQsMzYuMjEzIEwyNC45MzMsMzYuMjEzIEwyNC45MzMsMzguMjEzIFogTTI0LjkzMywyOC4zMDMgTDM3LjY3NCwyOC4zMDMgTDM3LjY3NCwyNi4zMDMgTDI0LjkzMywyNi4zMDMgTDI0LjkzMywyOC4zMDMgWiBNMjQuOTMzLDE4LjM5MyBMMzcuNjc0LDE4LjM5MyBMMzcuNjc0LDE2LjM5MyBMMjQuOTMzLDE2LjM5MyBMMjQuOTMzLDE4LjM5MyBaIE0xOS41NjEsMzguMzM3IEwyMS44MDgsMzguMzM3IEwyMS44MDgsMzYuMDkgTDE5LjU2MSwzNi4wOSBMMTkuNTYxLDM4LjMzNyBaIE0xOC41NjEsNDAuMzM3IEwyMi44MDgsNDAuMzM3IEMyMy4zNjEsNDAuMzM3IDIzLjgwOCwzOS44OSAyMy44MDgsMzkuMzM3IEwyMy44MDgsMzUuMDkgQzIzLjgwOCwzNC41MzcgMjMuMzYxLDM0LjA5IDIyLjgwOCwzNC4wOSBMMTguNTYxLDM0LjA5IEMxOC4wMDksMzQuMDkgMTcuNTYxLDM0LjUzNyAxNy41NjEsMzUuMDkgTDE3LjU2MSwzOS4zMzcgQzE3LjU2MSwzOS44OSAxOC4wMDksNDAuMzM3IDE4LjU2MSw0MC4zMzcgTDE4LjU2MSw0MC4zMzcgWiBNMTkuNTYxLDI4LjQyNyBMMjEuODA4LDI4LjQyNyBMMjEuODA4LDI2LjE4IEwxOS41NjEsMjYuMTggTDE5LjU2MSwyOC40MjcgWiBNMTguNTYxLDMwLjQyNyBMMjIuODA4LDMwLjQyNyBDMjMuMzYxLDMwLjQyNyAyMy44MDgsMjkuOTggMjMuODA4LDI5LjQyNyBMMjMuODA4LDI1LjE4IEMyMy44MDgsMjQuNjI3IDIzLjM2MSwyNC4xOCAyMi44MDgsMjQuMTggTDE4LjU2MSwyNC4xOCBDMTguMDA5LDI0LjE4IDE3LjU2MSwyNC42MjcgMTcuNTYxLDI1LjE4IEwxNy41NjEsMjkuNDI3IEMxNy41NjEsMjkuOTggMTguMDA5LDMwLjQyNyAxOC41NjEsMzAuNDI3IEwxOC41NjEsMzAuNDI3IFogTTE5LjU2MSwxOC41MTcgTDIxLjgwOCwxOC41MTcgTDIxLjgwOCwxNi4yNyBMMTkuNTYxLDE2LjI3IEwxOS41NjEsMTguNTE3IFogTTE4LjU2MSwyMC41MTcgTDIyLjgwOCwyMC41MTcgQzIzLjM2MSwyMC41MTcgMjMuODA4LDIwLjA3IDIzLjgwOCwxOS41MTcgTDIzLjgwOCwxNS4yNyBDMjMuODA4LDE0LjcxNyAyMy4zNjEsMTQuMjcgMjIuODA4LDE0LjI3IEwxOC41NjEsMTQuMjcgQzE4LjAwOSwxNC4yNyAxNy41NjEsMTQuNzE3IDE3LjU2MSwxNS4yNyBMMTcuNTYxLDE5LjUxNyBDMTcuNTYxLDIwLjA3IDE4LjAwOSwyMC41MTcgMTguNTYxLDIwLjUxNyBMMTguNTYxLDIwLjUxNyBaIE0xNi4wMjMsNDQgTDM5LjUwNiw0NCBMMzkuNTA2LDEyLjAyMiBMMTYuMDIzLDEyLjAyMiBMMTYuMDIzLDQ0IFogTTE0LjAyMiwxMS4wMjMgTDE0LjAyMiwzOS43NTMgTDExLjc3NSwzOS43NTMgTDExLjc3NSw3Ljc3NiBMMzUuMjU5LDcuNzc2IEwzNS4yNTksMTAuMDIzIEwxNS4wMjIsMTAuMDIzIEMxNC40NjksMTAuMDIzIDE0LjAyMiwxMC40NyAxNC4wMjIsMTEuMDIzIEwxNC4wMjIsMTEuMDIzIFogTTkuNzc1LDYuNzc2IEw5Ljc3NSwzNS45NzggTDgsMzUuOTc4IEw4LDQgTDMxLjQ4Myw0IEwzMS40ODMsNS43NzYgTDEwLjc3NSw1Ljc3NiBDMTAuMjIyLDUuNzc2IDkuNzc1LDYuMjIzIDkuNzc1LDYuNzc2IEw5Ljc3NSw2Ljc3NiBaIE00MC41MDYsMTAuMDIzIEwzNy4yNTksMTAuMDIzIEwzNy4yNTksNi43NzYgQzM3LjI1OSw2LjIyMyAzNi44MTEsNS43NzYgMzYuMjU5LDUuNzc2IEwzMy40ODMsNS43NzYgTDMzLjQ4MywzIEMzMy40ODMsMi40NDggMzMuMDM2LDIgMzIuNDgzLDIgTDcsMiBDNi40NDcsMiA2LDIuNDQ4IDYsMyBMNiwzNi45NzggQzYsMzcuNTMxIDYuNDQ3LDM3Ljk3OCA3LDM3Ljk3OCBMOS43NzUsMzcuOTc4IEw5Ljc3NSw0MC43NTMgQzkuNzc1LDQxLjMwNiAxMC4yMjIsNDEuNzUzIDEwLjc3NSw0MS43NTMgTDE0LjAyMiw0MS43NTMgTDE0LjAyMiw0NSBDMTQuMDIyLDQ1LjU1MyAxNC40NjksNDYgMTUuMDIyLDQ2IEw0MC41MDYsNDYgQzQxLjA1OCw0NiA0MS41MDYsNDUuNTUzIDQxLjUwNiw0NSBMNDEuNTA2LDExLjAyMyBDNDEuNTA2LDEwLjQ3IDQxLjA1OCwxMC4wMjMgNDAuNTA2LDEwLjAyMyBMNDAuNTA2LDEwLjAyMyBaIiBpZD0iQW1hem9uLUVsYXN0aWMtQ29udGFpbmVyLVNlcnZpY2VfU2VydmljZV9SZXNvdXJjZS1JY29uX2xpZ2h0LWJnIiBmaWxsPSIjRUQ3MTAwIj48L3BhdGg+CiAgICA8L2c+Cjwvc3ZnPg==;points=[[0,0],[1,0],[1,1],[0,1],[0,0.167],[0.167,0],[1,0.167],[0.167,1],[0,0.333],[0.333,0],[1,0.333],[0.333,1],[0,0.5],[0.5,0],[1,0.5],[0.5,1],[0,0.667],[0.667,0],[1,0.667],[0.667,1],[0,0.833],[0.833,0],[1,0.833],[0.833,1]]" vertex="1" parent="b9iFle_TsSmMyPbpANP3-13">
          <mxGeometry x="87.56756756756758" y="45.725806451612904" width="48.64864864864866" height="48.64864864864866" as="geometry" />
        </mxCell>
        <mxCell id="b9iFle_TsSmMyPbpANP3-18" style="shape=image;verticalLabelPosition=bottom;verticalAlign=top;imageAspect=0;aspect=fixed;image=data:image/svg+xml,PD94bWwgdmVyc2lvbj0iMS4wIiBlbmNvZGluZz0iVVRGLTgiPz4KPHN2ZyB3aWR0aD0iNDhweCIgaGVpZ2h0PSI0OHB4IiB2aWV3Qm94PSIwIDAgNDggNDgiIHZlcnNpb249IjEuMSIgeG1sbnM9Imh0dHA6Ly93d3cudzMub3JnLzIwMDAvc3ZnIiB4bWxuczp4bGluaz0iaHR0cDovL3d3dy53My5vcmcvMTk5OS94bGluayI+CiAgICA8dGl0bGU+SWNvbi1SZXNvdXJjZS9Db250YWluZXJzL1Jlc19BbWF6b24tRWxhc3RpYy1Db250YWluZXItU2VydmljZV9Db250YWluZXItMV80ODwvdGl0bGU+CiAgICA8ZyBpZD0iSWNvbi1SZXNvdXJjZS9Db250YWluZXJzL1Jlc19BbWF6b24tRWxhc3RpYy1Db250YWluZXItU2VydmljZV9Db250YWluZXItMV80OCIgc3Ryb2tlPSJub25lIiBzdHJva2Utd2lkdGg9IjEiIGZpbGw9Im5vbmUiIGZpbGwtcnVsZT0iZXZlbm9kZCI+CiAgICAgICAgPHBhdGggZD0iTTM4LjcyNSwzMy43MzU0IEw0MC43MjUsMzMuNzM1NCBMNDAuNzI1LDE0LjQ5NzQgTDM4LjcyNSwxNC40OTc0IEwzOC43MjUsMzMuNzM1NCBaIE0zMy40NzksMzMuNzM1NCBMMzUuNDc5LDMzLjczNTQgTDM1LjQ3OSwxNC40OTc0IEwzMy40NzksMTQuNDk3NCBMMzMuNDc5LDMzLjczNTQgWiBNMjguMjMyLDMzLjczNTQgTDMwLjIzMiwzMy43MzU0IEwzMC4yMzIsMTQuNDk3NCBMMjguMjMyLDE0LjQ5NzQgTDI4LjIzMiwzMy43MzU0IFogTTIyLjk4NiwzMy43MzU0IEwyNC45ODYsMzMuNzM1NCBMMjQuOTg2LDE0LjQ5NzQgTDIyLjk4NiwxNC40OTc0IEwyMi45ODYsMzMuNzM1NCBaIE0xNy43MzksMzMuNzM1NCBMMTkuNzM5LDMzLjczNTQgTDE5LjczOSwxNC40OTc0IEwxNy43MzksMTQuNDk3NCBMMTcuNzM5LDMzLjczNTQgWiBNMTIuNDkzLDMzLjczNTQgTDE0LjQ5MywzMy43MzU0IEwxNC40OTMsMTQuNDk3NCBMMTIuNDkzLDE0LjQ5NzQgTDEyLjQ5MywzMy43MzU0IFogTTcuMjQ2LDMzLjczNTQgTDkuMjQ2LDMzLjczNTQgTDkuMjQ2LDE0LjQ5NzQgTDcuMjQ2LDE0LjQ5NzQgTDcuMjQ2LDMzLjczNTQgWiBNMy45OTksMzYuMjMyNCBMNDMuOTcyLDM2LjIzMjQgTDQzLjk3MiwxMi4wMDA0IEwzLjk5OSwxMi4wMDA0IEwzLjk5OSwzNi4yMzI0IFogTTQ0Ljk3Miw5Ljk5OTQgTDMsOS45OTk0IEMyLjQ0Nyw5Ljk5OTQgMiwxMC40NDc0IDIsMTAuOTk5NCBMMiwzNy4yMzI0IEMyLDM3Ljc4NDQgMi40NDcsMzguMjMyNCAzLDM4LjIzMjQgTDQ0Ljk3MiwzOC4yMzI0IEM0NS41MjUsMzguMjMyNCA0NS45NzIsMzcuNzg0NCA0NS45NzIsMzcuMjMyNCBMNDUuOTcyLDEwLjk5OTQgQzQ1Ljk3MiwxMC40NDc0IDQ1LjUyNSw5Ljk5OTQgNDQuOTcyLDkuOTk5NCBMNDQuOTcyLDkuOTk5NCBaIiBpZD0iQW1hem9uLUVsYXN0aWMtQ29udGFpbmVyLVNlcnZpY2UtQ29udGFpbmVyLTFfUmVzb3VyY2UtSWNvbl9saWdodC1iZyIgZmlsbD0iI0VENzEwMCI+PC9wYXRoPgogICAgPC9nPgo8L3N2Zz4=;points=[[0,0],[1,0],[1,1],[0,1],[0,0.167],[0.167,0],[1,0.167],[0.167,1],[0,0.333],[0.333,0],[1,0.333],[0.333,1],[0,0.5],[0.5,0],[1,0.5],[0.5,1],[0,0.667],[0.667,0],[1,0.667],[0.667,1],[0,0.833],[0.833,0],[1,0.833],[0.833,1]]" vertex="1" parent="b9iFle_TsSmMyPbpANP3-13">
          <mxGeometry x="175.13513513513516" y="45.725806451612904" width="48.64864864864866" height="48.64864864864866" as="geometry" />
        </mxCell>
        <mxCell id="b9iFle_TsSmMyPbpANP3-21" style="edgeStyle=orthogonalEdgeStyle;rounded=0;orthogonalLoop=1;jettySize=auto;html=1;entryX=0;entryY=0.5;entryDx=0;entryDy=0;" edge="1" parent="b9iFle_TsSmMyPbpANP3-1" source="b9iFle_TsSmMyPbpANP3-8" target="b9iFle_TsSmMyPbpANP3-14">
          <mxGeometry relative="1" as="geometry" />
        </mxCell>
        <mxCell id="EOZyY3MgEhMXIJWPQMr4-15" value="" style="edgeStyle=orthogonalEdgeStyle;rounded=0;orthogonalLoop=1;jettySize=auto;html=1;entryX=0;entryY=0.5;entryDx=0;entryDy=0;" parent="1" source="EOZyY3MgEhMXIJWPQMr4-13" target="EOZyY3MgEhMXIJWPQMr4-4" edge="1">
          <mxGeometry relative="1" as="geometry">
            <mxPoint x="301.5454545454545" y="559" as="targetPoint" />
          </mxGeometry>
        </mxCell>
        <mxCell id="EOZyY3MgEhMXIJWPQMr4-19" style="edgeStyle=orthogonalEdgeStyle;rounded=0;orthogonalLoop=1;jettySize=auto;html=1;" parent="1" source="EOZyY3MgEhMXIJWPQMr4-13" target="EOZyY3MgEhMXIJWPQMr4-9" edge="1">
          <mxGeometry relative="1" as="geometry">
            <Array as="points">
              <mxPoint x="290" y="575" />
              <mxPoint x="290" y="760" />
            </Array>
          </mxGeometry>
        </mxCell>
        <mxCell id="b9iFle_TsSmMyPbpANP3-19" style="edgeStyle=orthogonalEdgeStyle;rounded=0;orthogonalLoop=1;jettySize=auto;html=1;entryX=0;entryY=0.5;entryDx=0;entryDy=0;" edge="1" parent="1" source="EOZyY3MgEhMXIJWPQMr4-13" target="b9iFle_TsSmMyPbpANP3-8">
          <mxGeometry relative="1" as="geometry">
            <Array as="points">
              <mxPoint x="290" y="575" />
              <mxPoint x="290" y="960" />
            </Array>
          </mxGeometry>
        </mxCell>
        <mxCell id="EOZyY3MgEhMXIJWPQMr4-13" value="" style="sketch=0;outlineConnect=0;fontColor=#232F3E;gradientColor=none;fillColor=#232F3D;strokeColor=none;dashed=0;verticalLabelPosition=bottom;verticalAlign=top;align=center;html=1;fontSize=12;fontStyle=0;aspect=fixed;pointerEvents=1;shape=mxgraph.aws4.user;" parent="1" vertex="1">
          <mxGeometry x="140" y="535.88" width="78" height="78" as="geometry" />
        </mxCell>
      </root>
    </mxGraphModel>
  </diagram>
</mxfile>
